<svg fill="none" height="35" viewBox="0 0 155 35" width="155" xmlns="http://www.w3.org/2000/svg" xmlns:xlink="http://www.w3.org/1999/xlink"><clipPath id="a"><path d="m0 0h155v35h-155z"/></clipPath><mask id="b" height="35" maskUnits="userSpaceOnUse" width="13" x="0" y="0"><path clip-rule="evenodd" d="m0 .906006h12.7339v33.441294h-12.7339z" fill="#fff" fill-rule="evenodd"/></mask><mask id="c" height="36" maskUnits="userSpaceOnUse" width="35" x="92" y="-1"><path clip-rule="evenodd" d="m92.1836-.0229492h34.7354v34.7874492h-34.7354z" fill="#fff" fill-rule="evenodd"/></mask><g clip-path="url(#a)"><g clip-rule="evenodd" fill="#262626" fill-rule="evenodd"><path d="m81.1437.708496-9.9749 29.473704h-.5659l-10.2579-29.402854h-6.9329l.0708 33.441254h4.0324l-.0708-29.40279h.283l10.1871 29.40279h5.8718l10.0456-29.47364h.283l.0707 29.40284h4.0324l-.0707-33.441304z"/><path d="m151.038.56665.071 29.40285h-.495l-13.017-29.40285-6.721.070851.071 33.441299h4.032l-.071-29.47369h.425l12.875 29.40279h6.792v-.2834l-.071-33.15785z"/><path d="m32.0471.189697c-9.6212 0-17.3323 7.793523-17.3323 17.429103 0 9.6357 7.7819 17.3583 17.4031 17.3583 9.6211 0 17.3322-7.7935 17.3322-17.4291-.0707-9.63563-7.8526-17.358303-17.403-17.358303zm0 3.967613c7.3574 0 13.3706 5.95139 13.4414 13.39069 0 7.3684-5.9425 13.3907-13.3706 13.4615-7.3574 0-13.3707-5.9514-13.4414-13.3907 0-7.3684 6.0132-13.39064 13.3706-13.46149z"/></g><g mask="url(#b)"><path clip-rule="evenodd" d="m12.6632 4.94447v-4.038464c-7.00368 0-12.6632 5.738864-12.6632 12.752994v8.0061c0 7.0142 5.73026 12.6822 12.7339 12.6822v-4.0385c-4.81058 0-8.70149-3.8967-8.70149-8.6437v-8.0061c-.07075-4.81777 3.82017-8.71453 8.63079-8.71453z" fill="#262626" fill-rule="evenodd"/></g><g mask="url(#c)"><path clip-rule="evenodd" d="m126.919 17.3354c0 9.6356-7.711 17.4291-17.332 17.4291-9.6216 0-17.4034-7.7227-17.4034-17.3583 0-9.63563 7.7111-17.4291492 17.3324-17.4291492 9.55 0 17.332 7.7935192 17.403 17.3583492z" fill="#262626" fill-rule="evenodd"/></g></g></svg>