<svg fill="none" height="46" viewBox="0 0 97 46" width="97" xmlns="http://www.w3.org/2000/svg"><path d="m0 45.8611h2.27356c.28204-4.8083 2.00367-9.9231 4.95871-14.8747-3.52128 4.87-5.98311 9.9332-7.23227 14.8747z" fill="#737373"/><path d="m42.8295 4.24929c19.4891-6.29021 36.7412-2.31649 42.5861 9.60671 4.3603 8.8945 1.3794 21.0812-7.2845 32.0065h10.2718c7.7641-10.8838 10.2438-22.7154 5.4225-32.0136-4.7282-9.12285-15.4624-13.84891144-28.4365-13.84891144-7.059 0-14.7795 1.39877144-22.5594 4.24930144z" fill="#737373"/><g fill="#000"><path d="m18.5835 18.3946c3.4991 0 4.056-2.2321 4.056-3.3123 0-2.6035-2.1203-3.2006-4.1283-3.2006h-2.6436l.0007 6.5086zm-9.56379 14.8854v-26.27179h11.35059c4.7253 0 9.1543 2.38022 9.1543 7.85149 0 1.5999-.6328 8.0018-10.271 8.0018h-3.386v10.4185z"/><path d="m58.7715 20.1484c0-5.3582 3.8334-8.8558 9.0799-8.8558 1.4475 0 2.6473.2777 3.6323.6364l2.62-4.50777c-2.4174-.81678-5.3582-1.07807-7.0726-1.07807-9.7106 0-15.4045 6.32604-15.4045 14.10304 0 9.4893 7.8515 13.5074 14.6256 13.5074 3.2378 0 4.7991-.4087 5.8421-.708l3.1999-5.507c-1.7861.7817-4.4283 1.4138-6.81 1.4138-6.8099 0-9.7127-4.5757-9.7127-9.004z"/><path d="m10.3226 39.1386h-1.3193v-1.1876h4.0023v1.1876h-1.3193v6.7512h-1.3637z"/><path d="m14.36 45.8898v-7.9396h1.3637v3.2336h1.4517v-3.2336h1.363v7.9396h-1.363v-3.5184h-1.4517v3.5184z"/><path d="m20.409 45.8898v-7.9396h3.6508v1.1884h-2.2871v2.0452h1.7595v1.1876h-1.7595v2.3308h2.441v1.1876z"/><path d="m27.2024 41.5138h.4839c.7366 0 1.0115-.2749 1.0115-1.2206 0-.9456-.2749-1.2205-1.0115-1.2205h-.4839zm0 4.376h-1.3637v-7.9388h1.9135c1.5283 0 2.3093.6485 2.3093 2.3422 0 1.2757-.4946 1.7925-.9571 2.0016l1.1554 3.595h-1.3859l-.9678-3.2872c-.1761.0214-.4617.0322-.7037.0322z"/><path d="m33.0795 42.9426h1.0996l-.5383-3.4089h-.0222zm-.4395 2.9472h-1.32l1.4625-7.9396h1.6937l1.4625 7.9396h-1.3194l-.2419-1.7596h-1.4961z"/><path d="m38.6417 41.5138h.5276c.8906 0 1.1654-.2749 1.1654-1.2206 0-.9456-.2748-1.2205-1.1654-1.2205h-.5276zm-1.3637 4.376v-7.9388h1.9572c1.683 0 2.4632.6485 2.4632 2.3422 0 1.693-.7802 2.3416-2.4632 2.3416h-.5935v3.255z"/><path d="m43.1087 45.8898v-7.9396h3.6508v1.1884h-2.2871v2.0452h1.7595v1.1876h-1.7595v2.3308h2.441v1.1876z"/><path d="m48.542 37.9502h1.3637v5.9931c0 .5827.2305.8684.7259.8684.4953 0 .7258-.2857.7258-.8684v-5.9931h1.3637v5.938c0 1.3637-.7924 2.1111-2.0895 2.1111-1.2972 0-2.0896-.7474-2.0896-2.1111z"/><path d="m55.3784 39.1386h-1.3193v-1.1876h4.0023v1.1876h-1.3193v6.7512h-1.3637z"/><path d="m59.6019 37.9502h1.363v7.9396h-1.363z"/><path d="m65.7726 40.601v-.6156c0-.6715-.3078-.9571-.6593-.9571-.5505 0-.7266.2856-.7266.8798v4.0245c0 .5942.1761.8798.7266.8798.4939 0 .6593-.2856.6593-.8025v-.9571h1.363v.9127c0 1.1218-.6593 2.0345-2.0223 2.0345-1.4303 0-2.0896-.9127-2.0896-2.0345v-4.0911c0-1.121.6593-2.0337 2.0896-2.0337 1.363 0 2.0223.9893 2.0223 2.1769v.5834z"/><path d="m71.5495 39.9081c-.0551-.6822-.418-.8798-.7266-.8798-.4395 0-.6807.2856-.6807.7803 0 1.3529 2.7703 2.0015 2.7703 4.1569 0 1.3086-.8791 2.0345-2.1554 2.0345-1.2642 0-1.9901-1.0122-2.0452-2.1991l1.2971-.1868c.0558.8024.3744 1.1983.8139 1.1983.4739 0 .7925-.2534.7925-.7259 0-1.5727-2.7711-1.99-2.7711-4.2665 0-1.2642.7696-1.98 2.1111-1.98 1.111 0 1.7703.8032 1.8913 1.9249z"/><path d="m38.0405 33.2843v-21.0912h-7.5136v-5.17059h21.8356v5.17059h-7.4391v21.0912z"/><path d="m91.5004 43.8317h.7144v2.0301h.413v-2.0301h.7252v-.3343h-1.8526z"/><path d="m95.6523 43.4974-.6701 1.7452-.6929-1.7452h-.6185v2.3644h.4131v-1.9199l.7495 1.9106.0028.0093h.2685l.7538-1.9199v1.9199h.4123v-2.3644z"/></g></svg>