<svg fill="none" height="62" viewBox="0 0 88 62" width="88" xmlns="http://www.w3.org/2000/svg"><g fill="#262626"><path d="m24.9774 59.851c.8708 0 1.7416 0 2.5102-.0224l-.1022.436c-.7532-.0146-1.624-.0223-2.5025-.0223s-1.8149.0077-2.6192.0223l.1023-.436c.7965.0302 1.6972.0224 2.6114.0224z"/><path d="m28.4027 61.9192v-.0292l.5854-.0963c.2054-.037.271-.1996.7319-2.0527.4832-1.9573.5054-2.0683.3077-2.1121l-.5343-.1109.0077-.0292h2.1804c.9508 0 1.595.7533 1.595 1.6692 0 1.4327-.9952 2.7622-2.6268 2.7622h-2.247zm1.4273-.0525c2.2392-.0146 2.8978-1.4181 2.9345-3.0134 0-.9382-.2054-1.1222-1.8361-1.3149-.1389.1548-.2344.3319-.6732 2.1267-.3008 1.2263-.4108 1.6847-.4252 2.2016z"/><path d="m33.5909 60.5527c0-1.1377.9074-2.2006 1.5883-2.2006.5998 0 .9585.4214.9585.7611 0 .3845-.8197.7086-2.3125.9529-.1099.2433-.1687.51-.1687.7601 0 .4215.4243.6132.7387.6132.5631 0 1.3761-.5392 1.6027-1.2624l.0222.0078c-.2488.9967-.9586 1.8094-1.5661 1.8094-.4966-.001-.8631-.474-.8631-1.4415zm.2488-.5314c1.3096-.2881 1.9248-.6793 1.9248-.9159 0-.1625-.0945-.3173-.3365-.3173-.6442 0-1.2807.5607-1.5883 1.2332z"/><path d="m38.8379 58.5001c-.1321.436-.2054.7455-.2999 1.2847h-.029c.1322-.7387-.0077-.9382-.622-.9382-.702 0-1.1273.2881-1.1273.5762 0 .5246 1.7706.5246 1.7706 1.2925 0 .4059-.7532 1.2779-1.4784 1.2779-.4243 0-.7464-.362-.9508-.5684.1388-.3105.2488-.6501.3365-1.019l.029.0078c-.1389 1.1222.0588 1.1524.9518 1.1524.5776 0 .8197-.148.8197-.5247-.0068-.6355-1.5218-.8419-1.5218-1.6244 0-.5314.4832-1.0638 1.3607-1.0638.3076-.001.6143.0876.7609.147z"/><path d="m41.4869 59.0607-.0511-.0292c-1.0608 2.075-1.5439 2.9685-1.9393 2.9685-.271 0-.5198-.3319-.5198-.9596 0-1.3588.9586-2.7107 2.678-2.6289.11-.2589.2199-.5986.2199-.7825 0-.1626-.1533-.2735-.4021-.2735-.2045 0-.4755.0661-.7387.2141l-.0068-.0146c.2922-.4283.6076-.657.8053-.657.1976 0 .4175.2287.4175.4944 0 .2658-.1466.805-.2411 1.0785-.1755.5168-.5564 2.0166-.5564 2.5626 0 .2366.1099.3767.2777.3767s.2855-.1625.622-.9305l.0145.0078c-.3655 1.2108-.5709 1.5067-.8563 1.5067-.2344 0-.4022-.3173-.4022-.694-.0009-.4078.4378-1.5816.6789-2.2395zm0-.2803c-1.6827.3912-2.4581 1.5144-2.4581 2.2522 0 .2073.1977.3397.4388.3397.5776 0 1.1418-.7018 2.0193-2.5919z"/><path d="m42.2121 60.5527c0-1.1377.9075-2.2006 1.5883-2.2006.5998 0 .9585.4214.9585.7611 0 .3845-.8197.7086-2.3125.9529-.1099.2433-.1687.51-.1687.7601 0 .4215.4243.6132.7387.6132.5631 0 1.3761-.5392 1.6027-1.2624l.0222.0078c-.2488.9967-.9586 1.8094-1.5661 1.8094-.4976-.001-.8631-.474-.8631-1.4415zm.2488-.5314c1.3096-.2881 1.9248-.6793 1.9248-.9159 0-.1625-.0945-.3173-.3365-.3173-.6442 0-1.2816.5607-1.5883 1.2332z"/><path d="m47.9712 57.4071c-.0589.1771-.1756.5168-.6076 2.2599-.4831 1.9496-.5053 2.0527-.3143 2.1043l.5487.1178-.0145.0292c-.5121-.0146-1.5806-.0146-2.0926 0l.0077-.0292.5998-.1032c.1977-.0292.2633-.1771.7319-2.0459.4533-1.8317.4244-1.8385.0801-1.8609l-.3877-.0078v-.037c.4754-.0292.9586-.1333 1.4195-.4428z"/><path d="m47.9644 61.9562c2.4292-.9674 3.6221-2.2006 3.6221-3.1389 0-.0515-.0077-.1031-.0077-.1479l-.029-.0078c-.2565.6716-.9363 1.2702-1.6461 1.2702s-1.1707-.5392-1.1707-1.2478.6143-1.2779 1.4484-1.2779c.9364 0 1.4928.7387 1.4928 1.6244 0 1.2925-1.0752 2.6289-3.7021 2.9462zm2.3771-4.0917c-.9074 0-1.4928.4282-1.4928 1.0482 0 .3767.3732.5684 1.0174.5684.9296 0 1.6606-.5616 1.6606-.9304.001-.3164-.5188-.6862-1.1852-.6862z"/><path d="m53.3792 61.9932c-.7686 0-1.3395-.7533-1.3395-1.7869 0-1.3218.9586-2.7769 2.3048-2.7769.7898 0 1.3829.731 1.3829 1.75 0 1.3296-1.0463 2.8138-2.3482 2.8138zm-1.244-1.6468c0 .657.4465 1.0852 1.1707 1.0852 1.405 0 2.327-1.2555 2.327-2.4001 0-.6424-.4533-1.0784-1.1486-1.0784-1.4272 0-2.3491 1.2409-2.3491 2.3933z"/><path d="m58.9039 61.9193c-.5053-.0146-1.7339-.0146-2.2392 0v-.0292l.7175-.111c.1687-.0224.2411-.1479.5342-1.2624h-.0955c-.6075 0-1.4638.0146-1.9904.0146l-.0221-.0292 2.6567-2.475-.0067-.0078.0221-.0078.7609-.7086.0289.0146c-.0511.1694-.1976.6502-.622 2.3486-.0655.2589-.1176.4876-.1687.6793.5053-.0077.622-.0593.7097-.2657l.2566-.62h.0221c-.1465.4283-.4098 1.5583-.4898 1.9719h-.0145l.0656-.6053c.0221-.2288-.0078-.2881-.5931-.3027-.271 1.1222-.2633 1.2107-.1022 1.2409l.5853.1256zm-.9441-1.5661c.0444-.1771.0955-.3835.1533-.6131.2045-.8128.3077-1.2624.4022-1.6839l-.0222-.0145-2.3125 2.2599.0145.0448c.432 0 1.1118.0078 1.676.0078h.0887z"/><path d="m63.3167 59.851c.8708 0 1.7416 0 2.5092-.0224l-.1022.436c-.7531-.0146-1.6239-.0223-2.5024-.0223-.8786 0-1.8149.0077-2.6192.0223l.1022-.436c.7975.0302 1.6982.0224 2.6124.0224z"/><path d="m.0684682 41.5978v-.0682l.7116838-.2219c.610428-.1713.626818-.3932.626818-4.4645 0-5.0806-.08486-5.0981-.729038-5.2684-.118614-.0341-.559318-.1198-.677932-.1713l.0173581-.0682h5.1013619c2.59312 0 3.62689.7699 3.62689 2.224 0 1.1115-1.37322 2.0702-2.74548 2.514 2.52561.1198 3.40702 1.0609 3.40702 2.4635 0 1.5913-1.74546 3.0619-3.98273 3.0619h-5.3559518zm3.9489818-10.1447c-.13598.4273-.18612.9061-.18612 4.6183.54292-.0175 1.06752-.0175 1.61045-.0175h.33945c.3732-.3251.57667-1.3169.57667-2.4119-.00193-1.8122-.62875-2.1033-2.34045-2.1889zm-.18612 4.9268v.1032c0 4.0888.0675 4.6017.20347 5.0125 2.67798-.3251 2.83035-.7183 2.83035-2.4119 0-1.5563-.28834-2.9247-1.54199-2.9247-.42431 0-.93251.0847-1.49183.2209z"/><path d="m13.8807 41.5978h-4.88147v-.0682l.16973-.0681c.62682-.2394 1.89784-3.4727 5.28844-10.6566h.0849c.6441 1.3344 1.7792 3.7803 2.4571 5.2344 1.5082 3.2673 2.2884 4.9774 2.8641 5.3541l.2035.1372v.0681h-5.1525v-.0856l.6104-.0516c.4745-.0516.7455-.1538.7455-.5645 0-.3592-.6269-1.933-1.2035-3.2499-.4407-.0175-.8978-.034-1.3896-.034-.5594 0-1.0512 0-1.5758.034-.1697.9062-.2372 1.6936-.2372 2.2065 0 .9918.4069 1.4366 1.2536 1.5738l.7628.0857zm1.1187-4.1054-.0338-.0681c-.5767-1.351-1.3896-3.062-1.7454-3.7287-.5256 1.2487-.8815 2.5996-1.1013 3.7803.5255.034 1.0174.034 1.5593.034.4571 0 .8969 0 1.3212-.0175z"/><path d="m26.152 41.5978h-5.8131v-.0682l.7117-.2219c.6104-.1713.6268-.3932.6268-4.4645 0-5.0981-.0675-5.1322-.729-5.286l-.6779-.1537.0173-.0682h6.5759c2.0849 0 2.9827.7874 2.9827 1.9155 0 1.128-.8814 2.3262-2.5083 2.7885 1.1013 2.5656 2.4745 4.8412 3.1862 5.32l.3047.1713v.0681h-3.2537c-.3896-.581-1.458-2.8906-2.407-5.3541-.3896 0-.7454-.034-1.0675-.1031 0 4.9609.0511 5.0465 1.0849 5.2168l.9663.1538zm-2.1862-10.1087c-.0675.0175-.1186.0341-.1861.0516zm3.3048 2.7194c0-1.7276-.7454-2.7885-2.6269-2.7885-.1022 0-.1861 0-.2883.0175-.1186.3251-.2546.804-.2546 4.447.5256.1538.9663.2219 1.5931.2219 1.1871.001 1.5767-.546 1.5767-1.8979z"/><path d="m31.0788 41.5978v-.0682l.7117-.2219c.6104-.1713.6268-.3932.6268-4.4645 0-5.0806-.0849-5.0981-.729-5.2684-.1187-.0341-.5594-.1198-.678-.1713l.0174-.0682h5.1013c2.5932 0 3.6269.7699 3.6269 2.224 0 1.1115-1.3732 2.0702-2.7454 2.514 2.5256.1198 3.407 1.0609 3.407 2.4635 0 1.5913-1.7455 3.0619-3.9828 3.0619h-5.3559zm3.949-10.1447c-.136.4273-.1862.9061-.1862 4.6183.543-.0175 1.0676-.0175 1.6105-.0175h.3394c.3732-.3251.5767-1.3169.5767-2.4119-.0019-1.8122-.6287-2.1033-2.3404-2.1889zm-.1871 4.9268v.1032c0 4.0888.0675 4.6017.2035 5.0125 2.6779-.3251 2.8303-.7183 2.8303-2.4119 0-1.5563-.2883-2.9247-1.542-2.9247-.4243 0-.9325.0847-1.4918.2209z"/><path d="m48.7349 41.5978c-3.2884 0-5.8304-.0682-8.2711 0v-.0682l.7116-.2219c.6105-.1713.6269-.3932.6269-4.4645 0-5.0806-.0849-5.0981-.7291-5.2684l-.6779-.1713.0174-.0682c.4918.0175 6.9152.0175 8.2537 0 .0174 1.1115.1187 2.5832.2546 3.9516h-.0675l-.7117-1.4366c-.864-1.6079-1.6953-2.224-3.7281-2.4118-.1524.4448-.1861.9237-.1861 4.9093 1.4918-.0856 2.0164-.4964 2.3385-1.6079l.2546-1.0093h.0511c-.0511 1.1631.1524 4.2426.2883 5.3716h-.0511l-.3558-1.0093c-.4234-1.1806-1.0511-1.5397-2.5256-1.6594v.1537c0 4.0032.0675 4.4821.2035 4.8928 2.0511-.1878 3.0164-.7183 3.813-2.3953l.7454-1.676h.0675c-.1697 1.4531-.2883 2.9919-.3221 4.1891z"/><path d="m54.3233 41.5978h-4.8815v-.0682l.1697-.0681c.6268-.2394 1.8978-3.4727 5.2884-10.6566h.0849c.6442 1.3344 1.7792 3.7803 2.4572 5.2344 1.5082 3.2673 2.2883 4.9774 2.864 5.3541l.2035.1372v.0681h-5.1525v-.0856l.6105-.0516c.4744-.0516.7454-.1538.7454-.5645 0-.3592-.6268-1.933-1.2035-3.2499-.4407-.0175-.8978-.034-1.3896-.034-.5593 0-1.0511 0-1.5757.034-.1698.9062-.2373 1.6936-.2373 2.2065 0 .9918.407 1.4366 1.2537 1.5738l.7628.0857zm1.1186-4.1054-.0337-.0681c-.5767-1.351-1.3897-3.062-1.7455-3.7287-.5256 1.2487-.8814 2.5996-1.1013 3.7803.5256.034 1.0174.034 1.5594.034.4571 0 .8978 0 1.3211-.0175z"/><path d="m66.5945 41.5978h-5.813v-.0682l.7116-.2219c.6105-.1713.6269-.3932.6269-4.4645 0-5.0981-.0675-5.1322-.7291-5.286l-.6779-.1537.0174-.0682h6.5758c2.0849 0 2.9827.7874 2.9827 1.9155 0 1.128-.8814 2.3262-2.5082 2.7885 1.1012 2.5656 2.4745 4.8412 3.1861 5.32l.3048.1713v.0681h-3.2537c-.3896-.581-1.4581-2.8906-2.407-5.3541-.3896 0-.7455-.034-1.0675-.1031 0 4.9609.0511 5.0465 1.0848 5.2168l.9663.1538zm-2.1861-10.1087c-.0675.0175-.1187.0341-.1862.0516zm3.3057 2.7194c0-1.7276-.7454-2.7885-2.6269-2.7885-.1022 0-.1861 0-.2883.0175-.1186.3251-.2546.804-.2546 4.447.5256.1538.9663.2219 1.5931.2219 1.1862.001 1.5767-.546 1.5767-1.8979z"/><path d="m72.1588 31.5738-.678-.1713v-.0681c.4745.0175 4.6945.0175 5.1689 0v.0681l-.7628.2053c-.5429.1538-.5931.4108-.5931 4.3108 0 5.1828.0849 5.2344.7966 5.4222l.6104.1879-.0173.0681c-.4745-.0175-4.6945-.0175-5.1689 0v-.0681l.6442-.2054c.7117-.2054.7117-.4273.7117-4.482 0-5.0446-.0676-5.0962-.7117-5.2675z"/><path d="m81.8138 41.5978h-4.8815v-.0682l.1697-.0681c.6268-.2394 1.8978-3.4727 5.2884-10.6566h.0849c.6442 1.3344 1.7792 3.7803 2.4571 5.2344 1.5083 3.2673 2.2884 4.9774 2.8641 5.3541l.2035.1372v.0681h-5.1525v-.0856l.6105-.0516c.4744-.0516.7454-.1538.7454-.5645 0-.3592-.6268-1.933-1.2035-3.2499-.4407-.0175-.8978-.034-1.3896-.034-.5593 0-1.0512 0-1.5758.034-.1697.9062-.2372 1.6936-.2372 2.2065 0 .9918.407 1.4366 1.2537 1.5738l.7628.0857zm1.1186-4.1054-.0338-.0681c-.5766-1.351-1.3896-3.062-1.7454-3.7287-.5256 1.2487-.8814 2.5996-1.1013 3.7803.5256.034 1.0174.034 1.5593.034.4562 0 .8969 0 1.3212-.0175z"/><path d="m16.6976 53.3815v-.0682l.7117-.2219c.6104-.1713.6268-.3932.6268-4.4645 0-5.0806-.0849-5.0971-.7291-5.2684-.1186-.0341-.5593-.1198-.6779-.1713l.0174-.0682h5.1013c2.5931 0 3.6269.7699 3.6269 2.224 0 1.1115-1.3732 2.0702-2.7455 2.515 2.5256.1197 3.407 1.0609 3.407 2.4634 0 1.5914-1.7454 3.062-3.9827 3.062h-5.3559zm3.9489-10.1437c-.1359.4272-.1861.9071-.1861 4.6183.543-.0176 1.0676-.0176 1.6105-.0176h.3394c.3732-.325.5767-1.3168.5767-2.4118-.0019-1.8123-.6287-2.1033-2.3405-2.1889zm-.187 4.9268v.1022c0 4.0888.0675 4.6017.2034 5.0125 2.678-.3251 2.8304-.7183 2.8304-2.4119 0-1.5563-.2884-2.9247-1.542-2.9247-.4243 0-.9325.0847-1.4918.2219z"/><path d="m34.3537 53.3815c-3.2884 0-5.8304-.0682-8.2712 0v-.0682l.7117-.2219c.6104-.1713.6268-.3932.6268-4.4645 0-5.0806-.0848-5.0971-.729-5.2684l-.6779-.1713.0173-.0682c.4918.0175 6.9153.0175 8.2538 0 .0174 1.1115.1186 2.5831.2546 3.9516h-.0675l-.7117-1.4366c-.864-1.6079-1.6953-2.224-3.7281-2.4118-.1524.4448-.1861.9236-.1861 4.9093 1.4918-.0857 2.0164-.4964 2.3385-1.6079l.2546-1.0093h.0511c-.0511 1.1631.1524 4.2426.2883 5.3716h-.0511l-.3558-1.0093c-.4234-1.1806-1.0512-1.5397-2.5256-1.6595v.1538c0 4.0032.0675 4.4821.2034 4.8928 2.0512-.1879 3.0165-.7183 3.813-2.3953l.7455-1.676h.0675c-.1697 1.4522-.2884 2.9919-.3221 4.1891z"/><path d="m37.4859 44.8972c-.271-.3416-.5082-.6667-.7628-.9236.0848 7.287 1.5082 8.5533 3.1698 8.9465l1.8814.3932-.0174.0682h-6.5758v-.0682l.542-.1537c.6605-.1713.864-.8896.9151-9.2717-.271-.2569-.5419-.4448-.8814-.547l-.6104-.1537v-.0682c1.3558.0341 3.2373.0341 4.5083 0 .864 1.4716 2.4745 4.0373 4.4234 6.3459-.1186-5.4738-.6606-5.867-1.5256-6.0383l-1.4069-.2394v-.0682c.9151.0175 3.4407.0175 4.3385 0v.0682l-.3896.1197c-.6605.1878-.9151.872-.9151 7.4924 0 .9918.0173 2.3437.0675 2.8391l-.0849.0175c-1.4388-1.8483-4.9635-6.5347-6.6761-8.7587z"/><path d="m49.6636 48.3008c1.5082-.1021 1.9663-.4788 2.3385-1.6078l.271-1.0093h.0511c-.1013 1.2487-.0174 4.5326.1022 5.7307h-.0511l-.3221-.9918c-.4744-1.4025-.8978-1.9154-2.3896-2.0351.0173 4.4986.1697 4.5842 1.0511 4.738l1.0338.1878-.0174.0682c-.5255-.0176-5.3048-.0176-5.8468 0v-.0682l.6442-.2053c.7117-.2054.7117-.4273.7117-4.4821 0-5.0806-.0849-5.0971-.7291-5.2684-.1186-.0341-.5593-.1197-.6779-.1713l.0174-.0682c1.6268.0516 3.2537.0682 7.8979 0 .0174 1.1972.1013 2.737.2546 4.1911h-.0675l-.7117-1.6761c-.729-1.6594-1.4571-2.2239-3.3723-2.3952-.1523.4448-.1861.9411-.1861 4.4645-.0019.2053-.0019.4107-.0019.5985z"/><path d="m54.9404 43.3575-.6779-.1713v-.0682c.4745.0176 4.6944.0176 5.1689 0v.0682l-.7628.2053c-.5429.1538-.5931.4108-.5931 4.3108 0 5.1828.0849 5.2344.7966 5.4222l.6104.1879-.0174.0681c-.4744-.0175-4.6944-.0175-5.1688 0v-.0681l.6441-.2054c.7117-.2054.7117-.4273.7117-4.482 0-5.0456-.0675-5.0962-.7117-5.2675z"/><path d="m67.7614 50.3194.2883-1.6594h.0675c.1697 1.1115.3221 2.4459.4234 3.1301-.7966.7874-2.2884 1.7617-4.5257 1.7617-3.0512 0-4.5256-2.1209-4.5256-5.0466 0-3.9 3.2199-5.5595 6.0338-5.5595 1.3385 0 2.2373.2395 2.813.4964-.0848 1.0609-.1861 2.9588-.2198 3.9516h-.0675l-.5594-1.3509c-.864-1.7276-2.0849-2.6347-3.6944-2.6347-1.1861 0-1.6442.6161-1.6442 3.1135 0 4.6358 1.407 6.3975 3.9317 6.3975 1.0858.001 1.2893-.2219 1.6789-2.5997z"/><path d="m73.3555 53.3815h-4.8815v-.0682l.1697-.0681c.6269-.2394 1.8979-3.4727 5.2885-10.6566h.0848c.6442 1.3344 1.7793 3.7802 2.4572 5.2344 1.5082 3.2673 2.2884 4.9774 2.8641 5.3541l.2035.1372v.0681h-5.1525v-.0856l.6104-.0516c.4745-.0516.7455-.1538.7455-.5645 0-.3592-.6269-1.933-1.2036-3.2499-.4407-.0175-.8978-.034-1.3896-.034-.5593 0-1.0511 0-1.5757.034-.1697.9062-.2372 1.6936-.2372 2.2065 0 .9918.4069 1.4366 1.2536 1.5738l.7628.0857zm1.1186-4.1054-.0337-.0681c-.5767-1.351-1.3896-3.062-1.7455-3.7287-.5255 1.2487-.8814 2.5996-1.1012 3.7802.5255.0341 1.0173.0341 1.5593.0341.4561 0 .8968 0 1.3211-.0175z"/><path d="m11.7283 51.9974c0-.8526 1.0521-3.17 1.515-4.3448l-.0955-.0642c-2.1842 4.1842-3.39638 5.9702-4.25754 5.9702-.622 0-1.18035-1.0463-1.18035-3.0581 0-2.6075 1.8496-5.2626 6.36179-5.214-.5584 1.4639-1.2595 4.2319-1.2595 5.3269 0 .547.3347.8049.6703.8049.3355 0 .5265-.2735 1.0521-1.6419l.0482.0165c-.7175 3.0581-1.1958 3.7657-1.9451 3.7657-.5111 0-.9094-.7086-.9094-1.5612zm1.3867-4.5385c-3.9229.6278-5.30962 2.0595-5.30962 3.0416 0 .4341.51013.6764 1.19578.6764.74929 0 2.42344-.6764 4.11384-3.718z"/><path d="m10.6222 42.2168c.6587.764 1.3106 1.4093 1.8853 1.3198.4484-.0701.6664-.4127 1.0039-1.0473.5419.2356 1.0887.5782 1.1919 1.2497.0964.6259-.2083 1.0181-.8631 1.1203-1.2064.1888-2.2228-1.2195-3.2488-2.6143z"/><path d="m45.3028 18.1111.1871.1889-.6268.6326-1.1929-1.204.2131-.2151 1.0058 1.0152zm-3.0348 2.0634-.1359.0506c-.1563.0545-.2546.0263-.3096-.0292-.0791-.0798-.0482-.2306.0386-.3182.081-.0818.1697-.0974.2796-.074l.0743-.2355c-.1929-.0458-.3703-.0205-.5188.1304-.2122.2141-.2623.51-.0733.7008.1774.179.3693.1567.5921.0798l.1601-.0555c.1736-.0681.2845-.0594.352.0097.1157.1168.1157.2443.0029.3582-.0637.0652-.1437.1041-.2238.1041-.0549 0-.1302-.0146-.1716-.0467l-.0907.2472c.2218.1217.4697.074.6519-.11.244-.2462.2565-.5421.0386-.762-.2112-.2132-.4503-.1334-.6664-.0497zm1.5478-.5898c-.0588.0594-.0588.1548 0 .2141.0588.0594.1533.0594.2122 0 .0588-.0593.0588-.1547 0-.2141-.0589-.0594-.1534-.0594-.2122 0zm2.2479-2.2688c-.0588.0594-.0588.1548 0 .2142.0588.0593.1533.0593.2121 0 .0589-.0594.0589-.1548 0-.2142-.0588-.0584-.1543-.0584-.2121 0zm2.3472-2.368c-.0588.0594-.0588.1548 0 .2132.0588.0593.1533.0593.2121 0 .0589-.0594.0589-.1548 0-.2132-.0588-.0594-.1542-.0594-.2121 0zm-.8756.5889c.2613.2628.2372.4603-.1042.8039l-.3201.3231-1.1929-1.2039.2391-.2414c.3414-.3446.5169-.4351.811-.1372.1302.1314.1273.2754.0714.3902.0887-.0535.2758-.1576.4957.0653zm-1.2286-.1149.3279.3309c.1273-.1314.2912-.3007.1379-.4545-.1688-.1713-.272-.073-.4658.1236zm1.0183.3076c-.16-.1616-.3317-.0175-.4638.1158l-.0675.0681.3587.3621.0907-.0915c.1765-.1781.2536-.2813.0819-.4545zm-7.8786-3.501c-.1129.1168-.2209.2375-.325.3611.3202.1022.6442.1966.9682.2862-.2141-.2161-.4291-.4312-.6432-.6473zm4.137 1.3305.4966.0175v-1.7782c-.2883-.0214-.567-.0399-.8534-.0798.0665.3397.1331.6794.1996 1.0191.0415.2121.0829.4233.1244.6355.0106.0565.0212.1295.0328.1859zm1.3211-.7981c.0695-.3523.1399-.7047.2093-1.057-.1041.0156-.8756.0925-.8756.0925v1.7811c.2305-.0029.5101-.0146.5101-.0146.0434-.22.1129-.583.1562-.802zm-3.2131.5091c-.4157-.6288-.8313-1.2585-1.2469-1.8873-.3173.219-.624.4672-.8988.7388.2131.2151.7927.8097.7927.8097s.9325.2502 1.353.3388zm.9875.179c-.2672-.6511-.5333-1.3022-.8005-1.9534-.2497-.0467-.4995-.0963-.7483-.1479-.109-.0224-.4908-.1051-.4908-.1051l-.0714.0564c.2527.3825.5053.766.758 1.1495.1562.2365.5439.8526.5439.8526s.487.0993.8091.1479zm.7531.0925c-.1205-.6151-.2401-1.2293-.3607-1.8444-.3423-.0516-.6837-.109-1.0231-.1713.1504.3669.3008.7339.4513 1.1008.0945.2307.2449.6073.3394.838 0 0 .3192.0526.5931.0769zm5.3521-1.4103c-.2565.2696-.513.5382-.7686.8078.4002-.107.7966-.2248 1.1919-.3474-.135-.1597-.2758-.3144-.4233-.4604zm-1.7686.3202c.2517-.3806.5043-.7611.756-1.1417-.0376-.0243-.08-.0642-.1224-.0798-.2614.0574-.894.1966-.894.1966-.1041.2258-.243.5509-.3471.7767-.1871.4049-.3742.8312-.5613 1.2361.2903-.0477.5989-.1148.5989-.1148.1552-.2346.4137-.6385.5699-.8731zm1.6596-.4253c-.244-.2297-.5053-.4409-.7801-.6336-.4137.6258-.8284 1.2672-1.2421 1.8921.3636-.0769.7262-.1801 1.0859-.2726.3124-.328.6239-.6569.9363-.9859zm-2.6442.6355c.1861-.4039.3722-.8068.5584-1.2107-.1399.0272-1.3241.2433-1.3241.2433-.0347.1761-.0694.3533-.1041.5295-.0868.4399-.1727.8866-.2594 1.3266.3085-.0107.7695-.0808.7695-.0808s.2556-.583.3597-.8079zm-4.2084-3.16026c.0251-.10122.0723-.18005.1437-.255-.1321-.19855-.1581.16157-.1437.255zm4.7552-.19173c.0318-.0876.0058-.17423-.0453-.2482-.1109.07689.0212.14892.0453.2482zm-1.9933-.81076c.0742-.03504.1427-.07786.1504-.16254-.08.02238-.1408.07883-.1504.16254zm1.1967.87207c.0598.07105.0444.16546.0328.25209.0723-.07689.1022-.17812.0781-.28129-.0414-.00292-.0761.0039-.1109.0292zm3.5536 8.46578c.4378.0885.8766.1771 1.3144.2657.0685-.3777.1061-.7611.11-1.1456h-1.2228c-.0424 0-.1784.7835-.2016.8799zm-.2922 1.0034c.4147.1743.8294.3485 1.244.5237.1428-.3611.2546-.7358.3347-1.1164l-.92-.184c-.1331-.0262-.2662-.0535-.3993-.0798-.0048 0-.2324.7767-.2594.8565zm1.7166-2.0361c-.0049-.4146-.0473-.8293-.1273-1.2361-.2459.0526-.4928.1061-.7387.1587-.0482.0097-.1958.0146-.2324.0496-.0241.3445-.0646.6871-.1177 1.0288.4051 0 .811-.001 1.2161-.001zm-2.1004 3.0269c.3433.2317.6857.4633 1.029.695.2092-.3251.3905-.6667.5419-1.022-.4137-.1684-.8283-.3358-1.242-.5041-.0994.2803-.2083.5586-.3289.8311zm.8718-6.6505c.028-.0097.055-.037.08-.0535-.0414-.0604-.0839-.1197-.1263-.1791.0154.0779.0309.1547.0463.2326zm.1485 1.3208c.1842-.0769.3693-.1548.5535-.2317-.1494-.3533-.3298-.692-.5371-1.0141-.0579.0184-.1475.0759-.1475.0759s.0366.1625.0511.2686c.0405.2988.0665.5996.08.9013zm-1.5053 6.3215c.2372.2385.4725.477.7097.7154.2633-.2745.5044-.5694.7185-.8837-.3356-.2268-.6712-.4526-1.0068-.6794-.1302.2871-.2691.5713-.4214.8477zm2.4263-5.4008c-.0753-.3475-.1813-.6871-.3125-1.0171-.1649.0691-.5998.2472-.5998.2472 0 .2375-.0048.768-.0174.9694.3096-.0661.6201-.1333.9297-.1995zm-3.0532 6.4491c.1129.1713.2267.3416.3395.5129.3163-.22.6143-.4682.8901-.7387-.2257-.2288-.4504-.4565-.676-.6843-.1726.3096-.3578.6132-.5536.9101zm-9.4466-2.3681c.1485.3514.3278.6891.5332 1.0103.2286-.1538.4571-.3075.6857-.4603.1138-.076.2353-.1567.3491-.2336 0 0-.299-.7485-.3318-.841-.4156.1733-1.2362.5246-1.2362.5246zm-.5343-2.5442c.0039.4156.0473.8303.1292 1.2371.4407-.0954.8814-.1908 1.3221-.2852-.0781-.3153-.1456-.6336-.2005-.9538-.4166.001-.8332.001-1.2508.0019zm3.8342 5.76c-.1533-.2034-.3915-.5119-.5342-.7241-.1051.1596-.2016.3066-.3057.4652.2401.1596.4918.3017.7512.4273zm-2.6799-2.075c.243.3552.5188.689.8236.9927.1726-.181.4956-.5178.6673-.6988 0 0-.3529-.6881-.4851-.9801-.3394.2287-.6663.4565-1.0058.6862zm.9354 1.0988c.244.2316.5054.4429.7812.6336.0935-.1411.243-.3679.3365-.509 0 0-.3635-.582-.487-.801-.216.2277-.4156.4496-.6307.6764zm7.032 1.2984c.3742-.1577.7348-.3494 1.0753-.5743-.1023-.1537-.2035-.3085-.3057-.4623-.2421.3562-.4976.7037-.7696 1.0366zm-.2768.3338c-.1436.1674-.2912.3309-.4407.4925 2.5353-.6638 4.5556-2.7534 5.1554-5.3259.6509-2.7943-.4407-5.7823-2.731-7.4807-.1803.0428-.3616.0866-.5429.1265 2.3337 1.5417 3.5034 4.4509 2.8882 7.1985-.2652 1.1845-.8496 2.2863-1.6741 3.17-.4079.437-.8718.8186-1.379 1.1339-.2681.1665-.5487.3144-.8371.4419-.1649.072-.3201.1051-.4388.2433zm-8.6829-5.0271c.0781.3465.1813.6872.3144 1.0162.271-.1139.541-.2268.812-.3407.135-.0564.3037-.1255.4387-.182 0 0-.2044-.6706-.2333-.7806-.4446.0944-.8882.1908-1.3318.2871zm1.1273-14.5926c-.3491.03893-.6904.10901-1.0424.04672.2035.33676.6789.38348 1.0309.36109.2478-.01557.4783-.08176.7165-.14989.0935-.02725.1986-.06326.2825-.11679.0984-.06327-.0038-.10317-.0202-.20148-.1929-.09149-.2855-.11095-.4832-.04477-.1581.05159-.3192.08565-.4841.10512zm-2.4889-1.59037c-.0887-.16157-.3279-.0292-.4909-.00584-.3568.05256-.7107.06911-1.0704.03699-.0289.06034.2797.27739.3751.31827.1543.06715.3414.08175.5073.09538.3568.03017.7367-.01947 1.0849-.10122-.1649-.08663-.3135-.17714-.406-.34358zm1.6307.56354c-.1746.03601-.3578.0438-.5285-.01168-.0742-.02433-.1504-.05548-.2092-.10804-.0926-.08273-.1813-.02433-.298.00487-.3732.08954-.7648.12166-1.1466.14405.7483.43993 1.7551.54407 2.5728.23651-.1514-.03309-.3047-.13626-.3905-.26571zm3.8737 5.98967c.0945-.01655.4051-.25014.4639-.17227.0501.06521-.0965.13821-.1427.17032-.0685.04867-.0213.12653-.0261.19466-.0694-.04477-.0559-.00876-.1167-.01265.0675.03601.1119.08954.0685.1567-.0434-.03893-.0955-.03893-.1408-.06618-.0366.11095.0473.16448.1408.13431.0781-.02433.136-.16838.1697-.23456.0261-.05256.081-.21023.1466-.21023.1099 0 .0723.1236.028.18103.0463-.00195.0926.03017.1388.02822-.0192.07495-.0868.07398-.1629.06716.0356.06132.0173.06327.0896.08468-.1629.14697-.0298.24332.0656.07786.0637-.20926.0859-.59371.3568-.55575.164.02239.243-.09344.4051-.05256.1321.03309.3066-.09441.1803-.22288-.001.05158-.0675.16838-.1148.09635-.027-.04185-.0202-.1129-.0357-.16351.0135.12556-.0646.14697-.1224.07786-.0155-.01849.0067-.10609-.0116-.13918-.0135-.02433-.0665-.02628-.0839-.04964-.082-.10901-.1524-.36888-.3462-.27739-.1311.06132-.2112.34163-.3375.43799-.1601.12166-.3375.0691-.3684.29296-.0415-.04477-.0839-.07494-.136-.09538.0782.22678-.1928-.0331-.3076.09538-.1427.16059.0878.17617.1996.1567zm-2.648-5.44073c-.1177-.12458-.2701-.03504-.4031-.13821-.1717-.13334-.2797-.03406-.4919.01655-.1668.0399-.3336.07592-.5024.10317-.2141.0399-.432.03893-.648.02141.2295.25792.4465.36207.7965.401.3867.04282.7908-.00584 1.1688-.10804.0791-.02141.2218-.03698.2575-.11679.0222-.04867-.1283-.12751-.1774-.17909zm-1.1428.9003c-.1408-.04672-.2401-.15378-.3394-.2589-.0405-.04282-.1109-.16838-.1572-.16838-.0656 0-.1341.03115-.1987.04575-.3057.06618-.6326.06034-.9431.07981-.6259.03893-1.1167-.00974-1.7194-.18201.2816.27155.5892.48568.9556.62194.7271.2589 1.6278.09733 2.4022-.13821zm-3.4234-1.30714c.2025-.0107.7175-.00681.8853-.13042-.3675-.07397-.6375-.19661-.8853-.48957-.3144.04477-.6345.09538-.9576.10414-.3202.00876-.6451-.04282-.9634-.07007.298.38348.8583.54894 1.3241.57327.2584.01168.3385.02725.5969.01265zm-.4947-.67352c.1254-.01363.2478-.03796.3713-.06326-.2807-.1314-.5208-.51196-.6973-.75139 0 0-1.7416-.02433-2.3356-.02433.5121.86526 1.8168.93728 2.6616.83898zm8.7466 5.30544c-.0463.12458.0723.10999.1639.12069.0087-.03893.0193-.10609.0212-.14697-.0762-.04185-.163-.07105-.1851.02628zm.2439-.35914c-.0327-.0584-.081-.10901-.1379-.14405-.0221.0438-.0675.18298-.0337.22483.0579.07397.1861.01363.1716-.08078zm-.1002.59273c-.0733-.0545-.1495-.07105-.2103 0 .0675.01947.1389.01363.2103 0zm-3.7128-2.96758c-.054-.03893-.1022-.08468-.1446-.13529-.2286-.03114-.515.13334-.7271.21023-.2093.07592-.4186.12069-.6375.15573.4514.16157 1.1283.08663 1.5092-.23067zm3.7581 2.6026c-.0126-.073-.0974-.08955-.1505-.01071.0473.00779.1023.01655.1505.01071zm-4.4543-2.94812c-.0396-.03212-.0916-.12847-.1283-.14794-.1427-.07592-.3153.02725-.4561.04574-.513.14113-1.0135.17909-1.5362.25112.7512.40975 1.5719.39515 2.3337-.02336-.0743-.03602-.1495-.07495-.2131-.12556zm4.1254 3.14959c.0521-.17422.1158-.36109.0897-.54505-.0492.05937-.0916.18006-.1668.18006-.1061 0-.1611-.10998-.2276-.18006.0096.12361-.001.24527.0328.36499.1929-.17227.1726-.10901.2266.10998.0106.02336.028.04867.0453.07008zm-5.4118-3.92336c-.1042-.05548-.2382-.19563-.2845-.30367-.0511-.11874-.2855-.10803-.3983-.11971-.3404-.03602-.6519-.24138-.9701-.34747-.1225-.04088-.3964.0584-.5304.07397-.1717.01946-.3453.03406-.5169.04088-.3472.0146-.6914-.01655-1.0347-.06327.1147.12556.268.25598.4214.328.5294.26863 1.1099.48471 1.7069.50612.4966.01849 1.135.05353 1.6066-.11485zm5.4379 6.14637c.9219.16254 1.7676.15768 2.6886-.00973-.8853-.16838-1.8043-.16254-2.6886.00973zm-5.1168 5.86512c-.0704.3776-.1071.7611-.1109 1.1446h1.2257c-.0483-.3125-.083-.6278-.1071-.9432-.3365-.0671-.6721-.1343-1.0077-.2014zm4.8188-6.10942c-.0135-.08857.0212-.1674.0328-.25305-.1804-.0438-.1235.1859-.0328.25305zm-1.0077 13.27872s-.0396.0817-.056.1168c.0714.0321.1553.0681.2276.0983-.055-.0682-.1176-.146-.1716-.2151zm-1.0444-11.63c-.1765-.0399-.352-.0807-.5275-.1226-.135.1012-.2671.2064-.3944.3173-.2807.2424-.5439.5071-.785.7903-.4619.5441-.8438 1.1573-1.1273 1.8143-.5883 1.3616-.7435 2.9004-.4446 4.3545.5458 2.659 2.6047 4.8382 5.2094 5.5176-.1196-.1285-.2363-.2589-.352-.3922-.1466-.1694-.2372-.2219-.4378-.3066-.2932-.1227-.5777-.2667-.8515-.4302-.515-.3076-.9885-.6852-1.406-1.1183-.8438-.877-1.4465-1.9797-1.7262-3.1701-.6452-2.7486.5101-5.7015 2.8429-7.254zm-2.4061 3.2051c-.1408.3572-.2526.7271-.3327 1.1037.3231.0662.6461.1305.9692.1966-.0202-.3465-.026-.6929-.0183-1.0404-.2064-.0866-.4128-.1733-.6182-.2599zm.8082-1.4629c-.0425.0565-.083.1149-.1225.1733.0183.0185.053.0418.0762.0496.0135-.0749.0289-.1489.0463-.2229zm-.2064.3018c-.2083.3173-.3867.654-.5362 1.0034.1861.0779.3713.1558.5564.2336.0155-.3854.0502-.7698.109-1.1504-.0289-.035-.0897-.0603-.1292-.0866zm5.5093 1.1747v1.1495c.188.0049.3741.0273.5496.0604.244.0467.5632.1167.5632.1167.0868-.0876.1736-.1751.2604-.2627.4783-.4838.9576-.9665 1.4369-1.4503-.8381.1957-1.6915.3553-2.5527.3835-.0858.002-.1716.0029-.2574.0029zm2.622 2.9472c-.1253.1255-.2498.2521-.3751.3786.3086.3046.5526.7631.6037 1.1972.1263-.4234-.0155-1.1923-.2286-1.5758zm-1.2006 6.7206c1.2103-1.2448 2.2402-2.6805 2.9461-4.2767.9518-2.151 1.3915-4.7905.7676-7.0963-1.5912.5344-3.3366.9801-5.0204 1.0045-1.7348.0243-3.5025-.4672-5.1476-.9821-.0232-.0078-.0463-.0156-.0695-.0224-.4792 1.8191-.2873 3.8553.244 5.6413.5034 1.6906 1.3761 3.2498 2.4803 4.6144.5574.69 1.1726 1.3305 1.8294 1.9251.1591.1441.3201.2852.4831.4234.1437.1217.3819-.1635.5111-.2783.3452-.3047.6548-.622.9759-.9529zm-1.6027.5373c-.108-.0935-.19-.1889-.2951-.2852-.6519-.5947-1.2594-1.241-1.8024-1.9388-1.0694-1.3724-1.8853-2.9481-2.3038-4.6456-.3491-1.4161-.4696-2.9588-.161-4.3925.0424.0127.0964.0205.135.0419 1.5748.4497 3.2035.9246 4.8535.8711 1.5188-.0496 3.0657-.4467 4.5122-.913.4011 1.7199.1388 3.6265-.4099 5.2831-.5776 1.7471-1.5815 3.3258-2.8207 4.6699-.2989.3241-.6123.6355-.9364.9353-.1629.1499-.3288.2978-.4976.4419-.1282.108-.1629.0282-.2738-.0681zm1.4995-1.2936c1.1939-1.2759 2.1775-2.7661 2.7879-4.4148.4417-1.1962.7088-2.4995.7136-3.7764-.6981.7056-1.4262 1.4453-2.1244 2.151.2131.365.3009.8769.2999 1.2935 0 .2083-.055.365-.0897.5674-.0405.2336-.0887.4545-.2006.6774-.1427.3134-.3346.6122-.6123.8195-.3192.2404-.5748.5538-.9576.7037-.3578.1402-.7474.2112-1.136.2103v2.9948c.0241-.0019.0521-.0156.0878-.0467.081-.0701.161-.1402.2401-.2122.3452-.3066.676-.6297.9913-.9675zm11.5644-22.15025c-.0675-.349409-.4918-.354275-.7657-.336756-.4069.026279-.8177.013626-1.2247.017519-.8467.006813-1.6943.012653-2.541.007787-1.5314-.007787-3.2798-.251111-4.6925.49735-.162.08565-.3047.18882-.4292.32606-.1359.15086-.2439.328-.3953.46524-.1399.12847-.3134.21315-.4523.34357-.1456.13723-.2102.29393-.2797.47691-.0067-.14891-.0848-.31534-.2353-.50222.1717-.42727-.3278-.81367-.6605-.96356-.0405-.16643-.1794-.23749-.2546-.37667-.0878-.162537-.1292-.274467-.3154-.35525-.0212-.228725-.2247-.315348-.4281-.315348-.2035 0-.3559.032118-.5478-.036012-.4976-.176167-.9412-.4885956-1.4928-.3309215-.4185-.1810332-1.0077-.1109558-1.3288.2326185-.2662.284202-.4051 1.062843.1706 1.062843.0512.17714.1601.33481.3048.44674.1475.11485.35.13821.4899.2589.0434.17032.0549.34844.2073.46134.0135.10804.0675.20634.1543.27934-.053.07202-.0868.14696-.1022.22093-.1958-.27836-.3096-.53336-.6336-.68325-.0993-.04574-.1948-.08176-.2681-.16643-.0829-.09539-.135-.21705-.2112-.3173-.3134-.41462-.7994-.64043-1.2903-.76501-.7136-.181033-1.4773-.201472-2.2093-.227751-.7859-.028226-1.5728-.022386-2.3587-.021413-.7706 0-1.542-.00292-2.3125-.006813-.3511-.001947-.7021-.00584-1.0531-.017519-.2459-.007787-.5535-.021413-.7647.130421-.27.193685-.1505.538235.0096.765015.1852.26279.4648.46718.7416.62193.1331.07495.2854.11583.4166.19077.1418.08176.243.22386.379.31729.1292.08955.2739.15281.4079.23457.1639.10122.2932.24527.4446.36401.2999.23554.648.36986.9315.62973.299.27349.621.48664.9981.63848.1736.07008.351.11777.5333.15865.1842.04185.3279.11971.4947.20536.3645.18785.7744.19855 1.1543.33482.109.17714.243.26376.4176.33773.1176.20147.2343.31924.4677.37472.2102.05061.406.10609.6239.10706.0723.02044.134.07105.2064.09344.0925.02822.1803.01654.2738.01362.1775-.00584.3462.06814.5246.04575.218.15962.5015.14502.7908-.04088.2478.12653.5208.06619.7233-.04672.0125.12945.0617.21608.1138.27155-.0078.19369.0665.36207.2063.47108.0058.24332.029.62778.2816.78545-.2526.19563-.6181.19758-.8968.34455-.4147.21899-.8496.39224-1.2701.59955-.6355-.0292-1.2305.20731-1.811.43603-.5371.21218-1.0656.44091-1.5825.69981-1.1167.55774-2.1736 1.21954-3.2083 1.91834l-.4089.2784 2.1524.1985-.2247 1.7014s.6673-.4546.8129-.5558c-.8823 2.2172-.8553 4.7478.0666 6.9464.8717 2.077 2.5034 3.7589 4.5382 4.6903 2.1514.986 4.6201 1.0668 6.8333.2317 1.9885-.7504 3.6838-2.224 4.7098-4.0995 1.1408-2.0848 1.4003-4.6135.7522-6.8997-.0829-.293-.1803-.5811-.2931-.8633.1388.0973.7975.5401.7975.5401l-.2122-1.6906 2.1582-.1849c-1.5381-1.093-3.1669-2.1101-4.9259-2.79727-.6393-.25014-1.3211-.59176-2.0231-.56257-.3269-.09246-.6809-.24916-.9663-.43701-.1244-.08273-.2401-.17908-.3674-.25695-.1427-.08662-.3019-.1421-.4523-.21412.0434-.05937.0772-.12653.1022-.19563h.002l.08-.13237c.0984-.16352.2073-.32411.2613-.51001.0232-.07884.0299-.16254.0608-.23846.0299-.07397.08-.13723.1118-.20926.1621.01266.325-.02628.4591-.11095.2488.11387.5612.09441.7888-.05061.1504.00778.3202-.03991.4581-.13043.1996.05548.3953-.00486.5959-.01362.1601-.00779.3096-.02141.4648-.06327.2942-.07883.5893-.23845.6799-.5538.0636-.04769.1148-.11096.1543-.18882.1524-.06911.2758-.14016.4436-.1606.1697-.02141.3327-.04185.4957-.09733.2555-.08662.4908-.23164.6663-.4409.4861-.10609.973-.26863 1.3858-.55575.1871-.13042.3288-.2881.4889-.44675.1938-.19271.4667-.2803.6779-.45161.2083-.16838.353-.39515.569-.55769.2064-.15573.3597-.40976.5921-.51877.3819-.18104 1.1717-.51585 1.0627-1.0755.0434.22094-.0183-.09732 0 0zm-.3732.16839c-.1678.2112-.5043.42727-.676.49638-.1745.07007-.297.10122-.4233.24332-.1119.12653-.2238.25014-.3607.34844-.1466.10609-.216.14113-.326.28615-.1195.15767-.2478.28518-.4088.40003-.137.09733-.2816.18492-.4349.25305-.1515.06716-.2286.24917-.3578.35526-.2469.20342-.5217.38153-.8226.49346-.162.06034-.3269.1129-.4957.15281-.0906.02141-.1813.04087-.2719.05937-.0569.01168-.1225.1382-.1697.18103-.2305.21413-.5594.30951-.8631.33676-.2122.01849-.2807.02531-.4571.13626-.056.03504-.1157.06132-.1775.08176-.0694.02239-.0723.12653-.1176.17909-.0482.05645-.1437.03893-.1437.12263 0 .08371-.0328.16546-.0858.23067-.081.09928-.2363.09831-.3366.13724-.1408.0545-.2141.08175-.3751.06521-.1225-.01168-.1697.03406-.3086.04866-.1456.0146-.2372-.02822-.299-.06521-.0327-.01849-.0732-.01362-.0993.01363-.0328.03309-.0665.06618-.0916.08078-.0685.03991-.1572.07105-.2353.07105-.055 0-.1215-.04574-.1581.00292-.0367.04769-.0965.07787-.1534.09441-.1475.04477-.3172.03407-.4349-.07202-.135-.12264-.1379.01557-.2816.09538-.0974.05353-.2314.05743-.3336.0146-.0598-.0253-.0608-.0983-.1264-.06521-.0569.02823-.1128.04185-.108.10998.0077.10707.0106.2151-.0578.3027-.0376-.10025-.1408-.16741-.2353-.20731.2092.2258.1417.56548-.0039.80978-.053-.03893-.1012-.0876-.1408-.14113-.0222.19466-.0337.38543-.1109.56743-.1061.25111-.1186.02434-.189-.06229-.081.16254-.2449.25501-.1119.42631.1206.1567.3308.26571.5179.33384.2073.07494.3038.14988.4783.27836.0434.03212.0762.06813.1042.11485.0839.03796.9575.45842 1.2073.50903.4446-.03795 1.0155.20926 1.4292.35234.5564.19174 1.0974.42533 1.6268.68126.9923.4809 1.9509 1.0405 2.8631 1.6624-.5033.0429-1.0058.0867-1.5092.1295.0521.4205.1042.8409.1563 1.2604-.4137-.293-.838-.5733-1.2681-.8429 1.785 2.9851 1.5902 6.8715-.4764 9.66-1.7918 2.4167-4.7648 3.7375-7.7408 3.4406-2.6915-.2686-5.1476-1.8551-6.5315-4.1998-1.6008-2.7135-1.5921-6.1989.029-8.9037-.4321.2706-.8593.5509-1.2749.8458.054-.4205.108-.8409.162-1.2604-.5015-.0428-1.0029-.0866-1.5034-.1295.7936-.5372 1.6201-1.0287 2.4726-1.4648.5583-.2861 1.1292-.55573 1.7165-.77764.5159-.19369 1.0829-.50222 1.8313-.43604.4272-.22385.9277-.34941 1.3202-.61609.1928-.13043.35-.17812.5747-.23262.2372-.05743.3684-.1275.5188-.31827.1726-.21802.081-.30853.0174-.54018-.2642.32216-.2546-.51098-.2546-.65114 0 .00098-.163-.01362-.1948-.1236-.0405-.13821.0665-.29199.0453-.43312-.2893.27739-.135-.20634-.1012-.34941-.1495 0-.272.00389-.4089-.0438-.054-.01947-.1842.13918-.2565.15864-.1235.0331-.2614.06424-.3732-.02141-.0463-.03504-.0675-.06326-.0974-.1129-.055-.09149-.0791.05061-.1206.08273-.1138.08662-.2218.17325-.3722.17325-.1292 0-.1774-.17714-.2787-.13821-.1119.04282-.1987.0399-.3134.00778-.1649-.04671-.1726-.03406-.3395-.02141-.1485.01071-.2208-.09051-.3404-.11193-.1244-.02336-.2256.06911-.3568-.02822-.0974-.073-.2179-.03115-.3307-.09247-.1341-.07299-.1196-.1859-.2045-.27252-.0742-.07786-.1957-.0584-.2825-.14599-.1138-.11485-.0724-.19953-.2382-.25111-.3269-.10415-.6674-.14113-.9923-.26085-.1553-.05645-.2951-.13237-.4253-.23554-.1389-.03503-.2334-.04574-.4687-.10609-.3308-.07494-.6287-.24137-.9132-.42241-.2324-.14794-.4205-.36498-.5931-.5392-.3616-.1314-.5651-.27837-.8274-.51001-.0935-.08273-.1196-.16059-.2324-.21121-.1659-.07494-.3501-.1421-.4889-.26376-.0781-.0691-.2546-.24138-.298-.32411-.6384-.10219-1.3713-.85358-1.1852-.97524.0521-.03407.7059-.01071.8766-.01071 1.5034 0 3.0107.02239 4.5131.00974.7185-.00584 1.435.04282 2.1505.10998.7088.06618 1.3665.17324 1.8814.71732.135.14307.19.38932.3501.50125.1986.1382.406.10706.5632.34162.2353.35039.567.98401 1.0415.59274.0906-.07397.1475-.15573.2005-.2589.0425-.07981-.1967-.02725-.2449-.04379-.2681-.09441-.0029-.1898.082-.30659.0308-.04283.1388-.17422.1302-.23262-.0184-.11582-.1119-.07008-.2257-.0837-.2826-.0331-.0569-.18493-.0077-.3718-.0627 0-.216.07397-.2691.04671-.0839-.04379-.052-.28517-.1292-.38055-.1774-.219-.5053-.21121-.675-.44188-.0482-.06521-.1476-.29978-.0511-.35039.0549-.02822.214.1314.2758.15865.2275.10317.3095-.13724.1465-.28615-.1263-.11485-.3076-.11485-.459-.072998-.1234.034066-.3385.203418-.3934.072998-.0463-.110956.1012-.340654.1774-.404892.1437-.120689.3375-.172274.5236-.172274.1524 0 .3057.01168.4379.095383.0771.048665.2584-.109009.4879-.06813.3568.064237.6114.229698.8997.350387.1862.077863.3713.104142.5709.094409.0502-.002919.1611-.081757.1987-.035038.0386.046718-.1032.187845-.1273.213155.1254.03796.3394.04282.4388.13626.1591.14794-.109.09927-.2112.16643.1263.05937.4735.09636.4908.26474-.0993-.00876-.216-.00779-.2845.073.2643.1421.541.12166.7677.34844.0761.07591.1716.17032.188.28128.0183.12361-.1543.05353-.2314.0837.1658.19174.3346.31632.432.55965.0723.17909-.1909.03309-.27.08273.1331.10317.2391.22094.35.34649.135.15281.1948.15476.3935.08565.162-.05645.1736-.18006.2218-.32021.0569-.16644.1437-.30464.2681-.42825.1138-.1129.2497-.16157.3703-.25209.1292-.09635.2179-.26668.323-.40099.2238-.28323.5246-.40782.8496-.52948.7011-.26182 1.4051-.2696 2.1428-.28907.7445-.01946 1.4918 0 2.2363 0s1.4147-.01752 2.1225-.01168c.2845.00195 1.3433-.00486 1.7233-.00778.0627-.00292.0983.07105.0588.12069zm-6.8516 1.7967c-.0743-.03406-.1553-.07494-.2199-.12653-.0897-.07397-.1398-.01849-.243.01752-.0685.02336-.1939.0146-.2517.04672-.0511.02823-.1032.13334-.1562.17422-.1273.19563.7107.44869.8717.46329.3819.03601.7725-.03309 1.056-.31145-.3751-.01558-.7127-.10512-1.0569-.26377zm-.299 1.35483c-.0357-.02141-.3664.13821-.4282.17325.192.4847 1.1312.62193 1.489.28128-.1948-.0146-.3732-.08176-.5516-.15767-.1784-.08663-.3395-.19369-.5092-.29686zm3.8159-2.55296c-.3645.13626-.812.10804-1.1909.07008-.1457-.0146-.082-.01071-.1784.05937-.0656.04769-.1322.11972-.1852.18298-.1041.12458-.298.16157-.4436.20926.5487.17519 1.2315.07008 1.703-.27252.108-.073.2112-.14892.2951-.24917zm-.9682.68034c-.1938.06716-.4262.05548-.6287.04574-.19-.00876-.6143-.19466-.7513-.07591-.1948.16838-.4368.13431-.6692.13723-.1456.00292-.1881.02823-.3279.10122-.0887.04575-.2334.06035-.3327.05548.1938.18979.649.33774.9104.36693.6017.11291 1.4523-.07299 1.7994-.63069zm-3.0377 2.45076c-.08-.04769-.2709-.29588-.3307-.30951-.0589-.01362-.3694.17227-.434.20245-.1321.06034-.2507.16448-.4002.20828-.0636.0185-.1832.00195-.2353.03407-.0279.01752-.0685.12458-.1022.15573-.2199.20244-.5516.17032-.7705-.02142-.0936.13334-.3992.35526-.5159.09831-.0666-.14697.2536-.00487.3375-.06716.0781-.05743.0685-.20926.1716-.2151.0319-.00195.2103.16254.2633.18395.1765.073.3693.01752.4841-.13918-.1302-.03114-.2613-.073-.3462-.18103-.1186-.14892.0511-.08273.1167-.05645.2719.10998.404.11874.6905.02336-.1621-.02726-.3135-.07592-.4465-.17812-.0367-.02822-.1775-.12555-.0695-.182.0646-.03407.1553.09927.2006.12458.2739.14794.6297.14405.8727-.06132-.3028.03309-.5959-.08954-.8293-.27642-.1591-.12652-.1234-.08175-.2796.02239-.1216.08176-.2402.07494-.3771.05158-.2334-.0399-.108.04867-.2498.1859-.0829.08079-.2729.10901-.3674.0331-.1225-.09733-.1109-.31925-.0058-.16254.0753.11192.2498.10219.3279-.00584.0598-.08176-.0482-.28518.0164-.32703.0347-.02336.2353.1421.3009.16157.0974.02822.2893-.00098.3568-.08663.1225-.15475-.0868-.14502-.2054-.19466-.0569-.02336-.3896-.15864-.1669-.2005.0878-.01654.3125.13821.4215.14697.2401.01947.4725-.09635.5737-.32021-.1379.02141-.2921.02433-.4281-.00779-.2006-.04672-.1929-.14697.0164-.10901.2738.05061.5294-.02725.7242-.22872-.1543.0253-.3645.0292-.5082-.04575-.0502-.02628-.2112-.08176-.2035-.15475.0077-.07203.1389-.01363.1746.00876.2497.15183.6306.10025.836-.09928-.1967.00389-.3529-.05742-.5275-.14015-.0424-.01947-.189-.13432-.0588-.14892.0598-.00681.1186.05061.1736.07397.2777.11485.6249.146.8988-.00389-.1919-.06035-.3829-.11582-.5516-.22775-.0926-.06229-.056-.16838.0453-.10999.081.04672.1581.09344.244.12945.2189.09149.7078.20926.8814-.01654-.1649-.03602-.2826-.16838-.4349-.23359-.1293-.05451.0279-.10123.1012-.08176.0569.01557.1283.09344.19.12069.2806.12069.7541.32897 1.001.02628-.1881-.073-.3607-.1567-.5323-.26377-.0367-.02238-.2787-.1528-.1457-.20828.0704-.0292.1823.08954.2363.12555.3558.23262.8303.34455 1.19.06813.0752-.07007.1514-.13431.216-.21509-.1427-.03894-.2989-.06619-.4349-.12751-.1514-.06813-.1475-.2005.0193-.12361.2604.12069.5921.14405.8746.17228.4591.04574 1.517-.00584 1.7127-.54991-.4127-.00584-.8245.00291-1.2372.00681-1.3704.01168-2.7783-.12556-4.1158.19855-.3424.08273-.6394.21705-.9104.44577-.1225.10317-.215.24625-.298.38153-.0887.14405-.2565.22094-.4031.31146-.3086.19368-.3201.40684-.4465.68228-.0713.15573-.2372.19855-.3992.23067-.134.02725-.3558-.00389-.4687.05645.1447.11582.2836.26085.381.41852.1176.18882-.1177.12458-.2151.09344.1283.12944.245.27349.3395.43117.1427.23748.1128.39808-.1727.255l.0116.0292c.0338.0837.0752.4448.136.47497.1321.06618.2266.14794.3095.27155.0878.13237.1177.35233.2392.3864.0472.01362.1157-.02044.1774 0 .0656.02141.0733.07105.162.07494.1524.00487.2633-.12458.3106-.25306.0964-.26279.1224.00779.1793.09539.0608.09343.3954.20634.4234.03309.0087-.05256-.2585-.28712-.1071-.34747.0685-.02725.1456.18882.1775.22483.0492.05548.1224.07884.1948.08857.0993.01363.3529-.07883.2835-.21315-.0193-.03698-.108-.25792-.0878-.28615.0376-.05061.1254.00098.1341.04672.025.12848.0829.26084.2015.328.0588.03309.19.06911.2527.02433.0983-.0691.026-.09441-.0193-.19758-.0241-.0545-.1119-.41267.0444-.26571.0308.02823.0356.18688.0703.23944.0492.07105.0984.12944.1765.1674.1013.05061.2035.02044.2961-.03893-.0589-.04964-.3559-.3718-.2334-.47205.0627-.05061.2276.26182.2662.3319.0829.15183.4397-.0146.3491-.12945-.1746-.22191.0867-.10025.1851-.22483-.3105.04185-.6268-.01363-.8988-.17617zm-.5419-1.67018c-.0695.11874-.1775.18785-.3009.24138.3076.68909 1.2623.68228 1.7416.20829-.542.03309-1.0019-.13043-1.4407-.44967zm-.3616.40587c-.0955.20147-.2874.31145-.4967.35914.0376.05451.0829.10512.1331.14892.3394.35525 1.0444.31827 1.4041.01946-.4137-.01849-.7946-.18687-1.0405-.52752zm6.5256-2.4605c-.1832-.00486-.7357 0-.7357 0-.0733.04088-.1408.17909-.2103.24041-.1003.08857-.2121.16254-.323.23651.7985.2005 2.2604.2404 2.8265-.49152 0 0-1.0502.03017-1.5575.01558zm-1.0839.65211c-.1118-.01849-.2767-.10122-.3635-.02238-.082.07494-.163.16254-.2546.2258-.2189.15086-.4407.26279-.6808.37569.8428.24527 2.0521.28031 2.7339-.3864.054-.05158.1041-.10803.1543-.16448-.5565.05255-1.0328.06423-1.5893-.02823zm-7.625 3.48927c-.1186-.07008-.2749-.08662-.407-.12263-.0858-.02336.0087-.09344.0627-.08857.0598.00584.1196.02043.1784.03114-.026-.16351-.107-.32897-.1292-.48373-.0135-.09538-.0839-.0837.0395-.13431.056-.02336.1514.03893.217.02822-.1099-.1567-.2179-.31243-.3529-.44869-.1784-.182-.2141-.25597.0848-.24819-.0877-.11679-.3288-.21996-.3828-.33189-.082-.16741.2247-.16838.3568-.18493-.108-.14989-.244-.30853-.4128-.38932-.2999-.14405.0955-.21704.2286-.22288-.0887-.19077-.2218-.24917-.3626-.38251-.1716-.16157-.0386-.23748.1668-.26474-.1735-.19465-.352-.34746-.621-.38055-.1736-.02142-.4745-.1752-.2006-.33677-.1263-.05547-.2526-.04671-.3857-.06326-.1312-.01655.1167-.23554.1668-.26376-.1263-.0438-.2729-.06521-.406-.05451-.0636.00584-.1591.01655-.1446-.07494.0096-.06424.1109-.05937.1658-.101224-.323.007786-.6114-.147941-.9007-.27447-.1668-.072997-.6663-.305615-.8187-.084677-.0308.044772.0434.162541-.0222.197579-.0752.040879-.0829-.06813-.0829-.109982 0-.139182-.1726-.18006-.2845-.199526-.2054-.036985-.7541.033092-.702.359147.217-.144048.622-.154755.7946.069104.1022.133339.1321.370829-.053.452579-.1437.06424-.2546-.0545-.3906-.0837.0868.17227.2816.24527.4475.31632.1938.08273.2536.18006.3442.36304.0212.04283.0135.17909.0704.15962.0627-.02141.1553-.0983.2083-.07883.1437.05547.0492.32508-.0048.41754.1688.06716.3587-.14502.3163.18395-.0222.17228-.1553.32508-.2787.43604.297.00779.4359-.11193.6519-.28226.0723-.05645.135-.13918.1726.02239.0193.08273-.0038.18298-.0222.26376.1784-.03698.3183-.16448.3308-.35136.0183-.27933.2604.12458.2883.20537.0377-.06229.0618-.3319.1553-.27447.0829.05061.0097.25014-.0357.3134-.0424.05937-.1707.24041-.2661.17033-.0724-.05353.053-.1898-.0328-.27642-.0887.18103-.243.30951-.4398.35428-.0704.01557-.1793.04867-.2353-.00779-.0434-.04379.0984-.17032.1138-.23359-.106.08663-.3336.1314-.3809.25403-.0771.27837-.4291.59469-.7329.48665-.3288-.11679-.4484-.38348-.6413-.65211-.0896-.12652-.1195-.19952-.3365-.2988-.1398-.06424-.2806-.06521-.3751-.19466-.0743-.10122-.1428-.29393-.246-.40489-.107-.11485-.1909-.19369-.3172-.28615-.5748-.42144-2.0946-.47399-2.7764-.50611-1.4339-.06911-2.1196 0-3.5873-.01558.3134.59761.7907.73776 1.4301.69494.3028-.02044.5998-.06619.894-.1421.1292-.0331.2574-.05548.3857-.09441.1466-.04477.2295.07105.0617.10803-.163.03504-.3838.0146-.2883.20926.0424.08662.2034.17617.2902.20342.2517.07981.5314.05743.7763-.03698.1437-.05548.2835-.11777.4224-.18493.0608-.0292.2681-.13821.2093.0292-.0212.0584-.3443.17324-.4002.19758-.1389.05937-.2855.10122-.4292.14502.352.24819.894.04477 1.2325-.1275.054-.02823.2594-.18298.3105-.17617.1543.02044-.001.14015-.0666.18493-.2054.14015-.4609.21899-.6895.3095.2913.34163.785.11096 1.0955-.07689.1958-.11874.2999-.06034.0781.09441-.1523.10707-.3355.18006-.5014.26377.3433.26473.7975-.13821 1.1408-.19174.0106.1966-.5342.3134-.6683.38056.2054.40392.8052-.13529 1.0589-.0438-.054.23554-.5825.27836-.7734.30269.2893.22873.6856.11193 1.0077.06132.2883-.04477.1061.10025-.0733.14113-.19.0438-.3742.05061-.568.05645.1456.32216.6095.2696.8805.19174.0713-.02044.1407-.06132.215-.06132.1205 0 .0106.11583-.0453.13626-.1678.0623-.3472.11388-.5266.10999.0753.17519.3385.24137.5092.24137s.3732-.18979.5246-.1129c-.0386.14892-.2758.18104-.3992.23165.1302.21412.4156.2112.6229.12361.11-.04575.1881-.17617.2546-.03699.0743.15573.1823.07884.2836.16351.0973.08079-.1071.11096-.1611.09344-.0685-.02141-.1803-.16059-.2257-.14891-.2237.06034-.4059.17714-.647.07689-.1148-.04867-.1466-.14308-.2324-.20829-.0762-.05742-.1881-.06034-.3038-.09927-.1138-.03796-.2411-.10999-.3009-.21802-.0704-.12848-.1244-.11291-.2661-.14892-.244-.06229-.461.10025-.7069.1606-.2478.06229-.4773.08759-.7319.10803.3452.36791.9768.16838 1.3877.06035.0694-.0185.2179-.11193.2517-.0146.0318.09149-.1804.13821-.2411.1567-.2305.07105-.4764.09538-.7136.13431.2815.13334.4831.09344.7849.05937.0704-.00778.1264-.05937.1968-.05937.0752 0 .1639.07495.0568.11193-.1446.05061-.2883.08176-.4378.1129.2247.28323.4784.12361.7503.08468.1456-.02044.2276.0438.0569.12166-.1167.05353-.2421.10804-.3722.11291.1166.26668.4657.23261.6663.10414.2315-.14794.1832-.08662.4234-.00292.1543.05353.323.0399.4628-.04477.0704-.04283.0955-.15184.1958-.10999.0723.03115.1485.02239.2257.02823.1022.00681.0029.10317-.0511.1129-.0695.01363-.1293-.01265-.1968-.00292-.1196.01752-.2102.15281-.3635.16838-.1341.01363-.271-.00389-.3944-.06034-.1881-.08662-.2151.05742-.4031.10609-.1543.0399-.3192.05353-.4649-.02725-.161-.08857-.1812-.27058-.3404-.31049-.1263-.03211-.2546-.11582-.3172-.23261-.0627-.11777-.4137-.03018-.5053.01654-.1196.06132-.2537.12458-.381.16644-.3153.10317-.6075.14307-.9392.11777.0945.1382.297.07689.3645.1713.0337.04671.0222.10706.053.1859.0232.06034.0685.10024.1293.12068.1928.06619.2767-.09635.3809-.21996.0906-.10706.0752.07397.0646.1129-.0183.06813-.1022.13529-.1553.17617.1505.1567.3877-.03407.4918-.15281.2315-.26182.1138.12166-.0588.24138.1823.12166.3693.00292.5179-.1129.2468-.19174.1986.01849.0231.16351.162.13821.4156-.03309.5362-.15475.0492-.04964.2526-.16839.1543-.00876-.0338.0545-.2074.20731-.1871.24429.0916.16741.3317.00779.4137-.08857.0444-.05158.0974-.19563.1649-.19076.0964.00778.1099.16351.1958.21023.2873.15475.3076-.1606.5024-.18493.0656-.00876.135.073.2092.08079.0733.00778.1611.01168.2286-.02044.1466-.07008.3211-.21413.432-.33676.1138-.12459.081-.3319.1447-.50612-.1196.07105-.2267.20731-.2334-.01654-.0039-.12264.1119-.2881.1948-.3718.0656-.06619.3365-.13529.2305-.0438-.0945.08175-.1842.17714-.2373.29199.0598-.0292.2431-.14405.2826-.06327.0289.06035-.0694.13042-.0907.19272-.0289.08273-.1002.22288-.079.3134.0308.13042.0549.09051.1745.12945.1215.03893-.1456.09538-.1784.12263-.0694.05645-.1649.073-.2401.13237-.162.12945-.2681.31827-.3134.52071.134-.1275.2729-.11193.1986.08663-.054.14404-.0897.28712-.081.44187.324-.26279.2054.23554.3954.3757.2488-.29686.4841-.21413.6741.1129.054-.15573.0395-.37667.2613-.20926.1138.08565.2131.27544.2344.41073.241-.09927.187-.48275.1282-.68033-.0212-.06813-.2218-.29297-.0675-.29297.1234 0 .1813.22289.2054.30951.0588.21802.0887.5869-.1379.72414-.1254.07591-.1533.16156-.2584.01168-.0338-.04867-.0396-.16644-.0801-.23165-.0328-.05353-.0723-.10317-.1147-.14989-.0193.1421-.0888.34844-.2556.22386.0203.16838-.0453.35428-.0781.51877-.0405.2005.1389.23748.2787.29491.0868.03601.2864.2258.351.17519.1939-.15378.2363-.09052.3771.10609.1514-.13723.1977-.30756.3876-.12069.0791.07787.3366-.16643.4099-.2151.1591-.10803.2768-.1674.2883-.37666.0087-.15378-.0173-.30465-.0434-.45551-.0125.21413-.1948.04186-.2738-.03406-.0135.05158-.0589.32216-.1524.21996-.0665-.07202-.1244-.15086-.1341-.25208-.0192-.19466-.0327-.37472.0174-.56646.054-.20245.2604-.31048.135-.02433-.0627.14307-.0926.48373.0019.61318-.0038-.21997.2093-.08565.3048-.01266.1466-.29101.5477-.51682.757-.12361.1427-.23553.35-.25597.5419-.08467.0917-.21024.0155-.34455-.0569-.53337-.0896-.23262.0676-.18103.2508-.09538-.0203-.28129-.1273-.66185-.3896-.8166zm-2.9162-4.22606c-.1417-.03211-.2044-.02433-.3462-.01654-.0887.00487-.2208-.00779-.2902-.07397-.0762-.07203-.0743-.280311-.2296-.201474.0589.098304.1505.186874.1341.308534-.1109-.00876-.217-.21996-.2083-.33092.0096-.129449.2681-.095383.3578-.064238.2651.09149.5033.334818.8032.289068-.0115.11874-.1272.11096-.2208.08954zm2.0598 2.7593c.0733.05451.0897.20829.0917.29491.0077.05353-.0078.20439-.0868.19953-.029-.00098-.1042-.1567-.1225-.18201-.0762-.10609-.3423-.21023-.3231-.32313.1649-.01071.3019.1421.4166.2404.0078-.04282-.106-.32703.0241-.2297zm-.2806-.76793c.0405.10706.0974.22678.0733.34455-.0357.17616-.1572-.0438-.2179-.09344-.0598-.04769-.3597-.15378-.1996-.20244.0867-.02628.243.08662.2999.14015-.0029-.10609-.1206-.18103-.055-.27058.0405.01655.0771.0438.0993.08176zm-.4561-.63459c.109-.00389.19.04867.2912.07689-.0125-.07494-.2208-.24527-.1099-.26474.0974-.01654.188.15281.215.219.0656.39126-.1822.14599-.377.06131-.0482-.02141-.081.03407-.1177-.02822-.0385-.06327.055-.06327.0984-.06424zm-1.0685.95383c-.0318.11777-.1533.16936-.1774.3027.1273-.03309.2333-.12264.377-.12264.2045 0-.2179.16449-.2382.18396-.3857.35136-.2362-.36596.0386-.36402zm-.9046.71051c-.3298.10414.0868-.80978.2469-.63848-.0617.17422-.2073.29588-.2488.48956.0482-.01751.3356-.15378.326-.0399-.0029.02725-.272.17227-.3241.18882zm.2672 1.79768c-.1003.07786-.1437.19758-.1823.0146-.0308-.15086.272-.65308.3626-.46718-.1427.08078-.2035.19563-.2555.34844.108-.03407.3442-.18201.4069-.03991-.1167.04185-.2314.06521-.3317.14405zm.3626-1.11735c-.0463.05062-.1186.20148-.1862.10901-.0356-.04866.0068-.18882.027-.24721.0473-.13432.1563-.34358.3183-.34261v.06132c-.0858.08955-.1688.16936-.2122.2881.0916-.04185.1804-.07981.2778-.1022.054-.01265.2381.03017.1369.07203-.1389.05839-.2469.03698-.3616.16156zm.9489 1.01905c-.0859.11387-.1148-.02531-.1669-.06813-.1407-.11291-.2285-.15573-.4117-.17422-.0145-.18201.325-.04283.4185 0-.0386-.14405-.1543-.18493-.2343-.29199.1504-.11291.3008.14404.3674.25305.0202.06424.0762.21705.027.28129zm.271-1.43854c-.1032-.11485-.1514-.22483-.2701-.33189-.1436-.13042-.1253-.19077.0512-.08954.0973.05645.189.13139.2439.23164.0627-.14307-.0549-.22873-.0366-.34941.0125-.08273.1659.20828.1543.31145-.0126.06716-.0145.37083-.1427.22775zm.3355 1.23609c-.0395.03115-.2295.30659-.2295.13821 0-.18201.0444-.58009.3096-.54505.0415.04283-.1852.21705-.19.35039.1042-.073.2353-.16546.3674-.12264-.027.11777-.1707.10999-.2575.17909zm.5459-.58398c-.0589-.12069-.11-.1966-.2045-.29588-.0684-.07202-.1755-.0438-.1793-.15281.1735-.0146.323.09539.4223.2297.0415-.09246-.0887-.38932.083-.25792.0598.0983.0434.19758.0279.30658-.0067.04867-.0819.30854-.1494.17033zm.3577.72997c-.0549-.05839-.0491-.1674-.1205-.23553-.0608-.0584-.1273-.06911-.1543-.1567.162-.05256.2555.14696.3809.1966-.0106-.06034-.0723-.21899-.0096-.24235.0665-.02433.0935.1022.1051.15768.0202.15572-.0415.4516-.2016.2803zm.9586 13.95224c.2208-.4458.2604-.877.0685-1.3422-.0955-.2326-.2161-.4652-.3896-.6502-.1023-.109-.0791-.0632-.0791-.0632-.1794.181-.4831.4886-.6625.6696.4445.5382.7493 1.4288.458 2.1062.2691-.1216.489-.4847.6047-.7202zm4.9509-16.0419c-.3009-.00584-.6056-.09831-.9055-.10804-.27-.00973-.4957.23748-.6847.42728.1572.05937.3134.12069.4783.15962 1.0483.24138 2.3598-.00779 3.1351-.79032-.6577.24624-1.324.32508-2.0232.31146zm1.3916-1.00347c-.1341-.01655-.2681-.03796-.3964-.07592-.1707-.05061-.1919-.04867-.3018.08954-.1447.18104-.3896.31827-.5989.40684-.1697.0438-.3529.14405-.5342.12361-.1505-.01655-.2623.14989-.3752.22775.3356.00681.6712.10706 1.0116.10706.379 0 .7484-.03503 1.1206-.10511.5979-.11096 1.4137-.40879 1.7638-.94118-.5497.17909-1.1148.23943-1.6895.16741zm-2.3916 1.61567c-.3115-.05645-.6847-.30562-.973-.13334-.2266.12653.2671.32216.3799.36498.2199.08273.4311.13821.6645.16449.3732.03991.8978-.0691 1.1466-.37472-.4108.05256-.8082.05353-1.218-.02141zm-3.7301 4.34285c-.0058-.06521-.0598-.19661-.1398-.20244-.1157-.00779.1273.19076.1398.20244zm-4.1833-7.74258c-.026-.03796-.0154-.066181-.0704-.063262.0145.142102.299.281282.2999.107062-.081.0292-.1745.0292-.2295-.0438zm2.5825 5.99649c-.0125.19368.0897.1567.2257.14502-.0039-.08565-.0145-.17714-.0598-.25014-.0386-.06034-.162.04672-.1659.10512zm.5352.15864c-.0887.02434-.1446-.20342-.2333-.24527.0626.16254.0617.3611.1041.53726.0019.0438.0222.09247.0309.13529.106-.06813.054-.19466.1003-.25111.0665-.08273.1639-.05158.2295.06034.0453-.16254.0954-.34844.0434-.51584-.0974.07299-.1601.24721-.2749.27933zm-.4609.15476c.0655-.00292.1302-.01752.1899-.04477-.0655-.07203-.1475-.03602-.1899.04477zm-.0155.35428c.0868-.02725.1727-.00584.2614-.02239-.0608-.06813-.1929-.04964-.2614.02239zm.0193-.21705c-.0087.02531-.0164.04964-.0038.08176.08-.02531.2247.02725.2198-.08176-.0048-.12653-.1668-.0545-.216 0zm-.1591.49249c-.0791.09344-.1292.33482-.2555.16838.0463.1022-.0135.22775-.0839.07786-.3144.22484.2218.10512.242.11291.055.02141.0878.13918.1476.1859.0626.04866.1793.04185.2237.10122.0964.12848.08.34844.1389.50027.1205.30951.3037-.05061.0935-.03406.0251-.05353.054-.09636.0955-.14016-.1678.05743-.1563-.09343-.0164-.13528-.0695-.08857-.0241-.15768.0655-.13529.0405.00973.1389.13042.1727.16351.052.05159.3982.3864.296.08954-.1012.09344-.1967-.01654-.0848-.10608-.055-.0185-.1206.06034-.1659.00584-.0405-.0477.0414-.08857.0337-.13237-.0289-.1567-.0945-.17422.135-.14113.0849.01265.3279.12361.3665.02336.0376-.09928-.0829-.17325-.161-.20537-.0078.27447-.1428-.00876-.1842-.05061.0173.06911-.0261.18395-.1109.12945-.0319-.02044.0077-.1022-.0058-.12458-.0338-.05451-.0608-.08857-.1119-.12945-.1736-.13626-.2816-.20537-.4002-.4156-.2054-.00389-.2989.03796-.4301.19174zm-3.4157 11.20652c-.2401-.1148-.4445-.3903-.5468-.6316-.0058.327.0444.7027.1794 1.0034.1254-.1265.2411-.2452.3674-.3718zm.4918-.4954c-.2999-.8331-.1755-2.0585.4841-2.6931-.7271.2939-1.3491 1.1728-1.4581 1.9437-.0597.4243.083.8029.4089 1.0764.0068.0059.0145.0108.0212.0156l.1235.0779c.0887-.0837.3346-.3368.4204-.4205zm1.2691-2.9802c-.3655.0681-.6654.2754-.8862.5752-.4803.6511-.515 1.5631-.2999 2.3223.5024-.5071 1.0048-1.0152 1.5063-1.5223-.1148-.6083.1861-1.1806.7242-1.3596-.2411-.111-.7917-.0623-1.0444-.0156zm.4118 1.2838 1.1447-1.1553c-.7831-.1567-1.1872.4545-1.1447 1.1553zm-.2816-8.63416c-.0916.12361.0646.14697.1427.21315-.0038-.09441-.0492-.18298-.1427-.21315zm.5882 12.09126c.4108-.2316.5613-.5441.3549-.9743-.3867.3903-.7724.7806-1.1591 1.1719.2767-.001.5612-.0613.8042-.1976zm.5314-.3572c-.299.4497-.7435.6278-1.2421.6599-.2189.0146-.2227.0263-.3741.1781-.0878.0896-.1765.1781-.2643.2677.4812.1382.892.3387 1.4022.1781.514-.1616.5342-.837.4783-1.2838zm1.1312.5266c.3375-.7086-.002-1.4648-.406-2.0586-.2729.2774-.5468.5538-.8197.8312.298.5324.3944 1.7101-.2247 2.0274.5005-.0175 1.2343-.3465 1.4504-.8zm-4.6298-11.69225c.0453-.07495.1003-.14405.1784-.18493-.001-.03601-.0174-.07592-.0328-.10804-.0897.06229-.1698.18006-.1456.29297zm-2.9239 1.64775.0559.1071-.4002.2122-.27-.5188.4002-.2122.0559.1071-.2661.1411.0395.0759.2584-.1362.056.107-.2585.1363.0627.1207zm1.0029-.76984-.135-.00195-.0077.58589.1514.002.0029-.22h.0212c.08.001.1456-.0117.1938-.036.0608-.0311.0936-.0808.0936-.144.0038-.16063-.1698-.18399-.3202-.18594zm.1755.18394c0 .0175-.0058.037-.0424.0497-.0357.0126-.0849.0136-.1196.0136l.0019-.12655c.1447.00292.1611.03698.1601.06325zm.6104.3562.2189.0351-.0193.1197-.3683-.0594.0925-.57909.1495.02433zm1.0309-.2705.1485.0321-.0752.3552c-.0241.112-.1186.1772-.2478.1772-.029 0-.0598-.0029-.0916-.0098-.0849-.0185-.1534-.0564-.1968-.109-.0434-.0525-.0598-.1177-.0453-.1829l.0752-.3553.1485.0321-.0704.3329c-.0086.0409-.0058.073.0077.0983.0174.0311.0531.0525.1071.0642.0984.0214.1504-.0097.1697-.1012zm.92.3893c.0135-.0633-.0164-.1304-.0791-.1752-.0578-.0399-.1331-.0565-.1929-.0701l-.1369-.0302-.1244.5733.1485.0331.0463-.2112.1582.256.1928.0428-.1851-.2861c.0877-.0078.1562-.0575.1726-.1324zm-.2874-.1256c.0502.0117.0858.0244.1109.039.0357.0223.0367.0418.0338.0574-.0068.0292-.0319.0594-.1717.0292zm.6722.0214.1485.0292-.1129.5753-.1485-.0292zm.8225.4117c.027-.0214.0463-.0506.0512-.0827.0096-.0662-.0174-.1207-.0782-.1586-.0434-.0273-.106-.0468-.1899-.0594l-.1186-.0175-.0859.5801.1987.0301c.0299.0049.0578.0068.0848.0068.1264 0 .2083-.0506.2218-.1401.0087-.0604-.025-.1207-.0839-.1587zm-.0935-.1041c-.0039.0224-.0135.0341-.0337.0389-.0261.0078-.0637.0039-.0917 0l.0164-.1119c.108.0175.1129.0457.109.073zm-.1427.1518.0251.0039c.0462.0068.0839.0175.1099.0321.0395.0215.0366.0419.0357.0497-.0077.0506-.0849.0496-.1485.0399l-.0386-.0058zm1.2604-.2608.0038.363c.001.1402-.1176.2356-.2951.2375h-.0048c-.0848 0-.1572-.0214-.2102-.0632-.054-.0419-.0829-.1013-.0839-.1684l-.0039-.3631.1514-.0019.0039.3406c0 .0409.0096.073.0289.0944.0232.0263.0637.039.1177.039.1003-.001.1446-.0428.1437-.1353l-.0029-.3407zm.865.3017c.0145.11-.0868.2073-.2363.2278-.0154.0019-.0308.0029-.0463.0029-.1099 0-.2015-.0535-.2285-.1402l-.0097-.0301.1543-.0448.0039.036c.001.0127.0077.0234.0203.0331.0221.0175.0597.0253.0983.0204.0569-.0078.0993-.0457.0936-.0846-.0039-.0322-.0483-.0458-.1119-.0555l-.0521-.0088c-.0607-.0107-.1851-.0321-.1996-.1372-.0068-.0506.0164-.0983.0646-.1363.0405-.0311.0964-.0535.1572-.0613.0897-.0117.1688.0107.2218.0633l.028.0282-.1215.073-.0164-.0156c-.0261-.0243-.054-.0321-.0974-.0263-.0241.003-.0483.0127-.0656.0253-.0077.0059-.0212.0176-.0193.0302.001.0059.0087.0243.0839.0351l.054.0077c.0955.0127.2093.0438.2247.1577zm1.4195-.2978c.026.1382-.0743.253-.2488.2861-.0289.0049-.0559.0078-.0829.0078-.0521 0-.1003-.0107-.1408-.0321-.0598-.0321-.0994-.0856-.1119-.1518l-.0665-.3563.1494-.0282.0627.3348c.0077.0409.0232.0701.0444.0876.027.0214.0685.0273.1225.0175.0993-.0184.135-.0681.1186-.1596l-.0627-.3348.1485-.0282zm1.0801.0866-.6076-.3144.0598.3553-.1495.0253-.107-.6327.6075.3144-.0597-.3523.1494-.0263zm.9016-.363c.0048.0662-.0212.1284-.0713.1742-.0502.0457-.1235.074-.2103.0788-.0106.001-.0212.001-.0318.001-.1601 0-.271-.0837-.2796-.2161l-.0232-.36204.1514-.00973.0222.33967c.0058.0925.054.1314.1533.1246.1003-.0068.1427-.0506.136-.1441l-.0222-.33964.1514-.00973zm1.1216-.185-.0232.6784-.1504-.0467.0183-.3095-.298.2628-.0984-.3874-.1591.2657-.1504-.0467.3626-.57229.1225.49059z"/></g></svg>