<svg fill="none" height="62" viewBox="0 0 75 62" width="75" xmlns="http://www.w3.org/2000/svg"><path d="m58.7512 5.30414c-.3137-.13229-.5981-.31602-.8461-.54386-.2116-.19843-.321-.48506-.3064-.77169 0-.33808.1386-.66145.3866-.88928.2772-.23519.6346-.35278.992-.35278.372-.0147.7367.12494.9993.38952.2553.27193.3939.63206.3866 1.00688l.0802.27193.2699.11759h.5762l.1897-.23518.0729-.08085v-.11024c-.0073-.69085-.2626-1.3523-.7294-1.85941-.5179-.48507-1.2108-.7423-1.9183-.6982-.6857-.0147-1.3422.23518-1.8455.6982-.4741.44832-.744 1.08037-.7294 1.74182-.0073.66145.2553 1.2935.7294 1.74182.6857.49976 1.437.89663 2.2248 1.19796.3136.13229.5981.31603.8461.54386.2115.19844.3282.48506.3136.77169.0219.33073-.1021.66145-.3428.88929-.2918.23518-.6638.36012-1.0358.34542-.423.05145-.8461-.09554-1.1524-.38952-.2845-.32337-.4377-.74964-.4304-1.19061.0073-.12494-.0511-.24253-.1532-.30868-.0729-.05879-.175-.08819-.2699-.07349h-.5397l-.2261.19108-.0803.0735v.11759c0 .74964.2918 1.46989.8097 2.01375 1.0941.97015 2.728.98485 3.844.03675.4741-.44832.744-1.08037.7294-1.74182.0146-.66145-.248-1.29351-.7294-1.74182-.62-.52917-1.3421-.92604-2.1153-1.16122z" fill="#737373"/><path d="m65.1699 7.00923c.7659.02939 1.5172-.24988 2.0788-.7717.5033-.49976.7878-1.18326.7659-1.89615.0146-.7276-.248-1.43315-.7294-1.97701-1.0868-1.08772-2.8374-1.08772-3.9169 0-.4815.55856-.744 1.27146-.7295 2.01375v3.4469c-.0364.74229.2262 1.46989.7295 2.01375.5105.53653 1.2254.83053 1.9621.81583.7221.0294 1.4223-.2499 1.9183-.77174.4741-.54386.7513-1.2494.7659-1.977v-.12494l-.2334-.19109-.0729-.07349h-.6127l-.2335.19108-.0729.0735v.11759c.0219.42627-.1313.84519-.4231 1.16121-.2625.29398-.6491.44832-1.0357.42627-.4158.03675-.817-.13964-1.0796-.46301-.2552-.33073-.3938-.7423-.3865-1.16122v-.85253zm.1094-4.21859c.4012-.0147.7951.13964 1.0795.42627.2699.30868.4085.7129.3866 1.12447 0 .38217-.1313.75699-.3866 1.04362-.3282.28663-.7585.43362-1.1889.42627h-1.3421v-1.3964c-.0146-.43362.124-.85989.3866-1.19796.2699-.30133.6637-.46302 1.0649-.42627z" fill="#737373"/><path d="m73.6968 2.36439c-.5179-.54386-1.2473-.84519-1.9986-.81579-.744-.00735-1.4661.27928-1.9985.81579-.4815.55856-.744 1.27145-.7295 2.01375v3.44689c-.0145.7423.248 1.45519.7295 2.01375.5251.54382 1.2472.83782 1.9985.81582.744.0073 1.4662-.2793 1.9986-.81582.4814-.55856.744-1.27145.7294-2.01375v-3.44689c.0292-.7423-.2334-1.46254-.7294-2.01375zm-.496 5.49739c.0073.43362-.124.85253-.3866 1.19796-.2771.30133-.671.46301-1.0795.46301-.4085.0294-.8096-.14698-1.0795-.46301-.2772-.32338-.4085-.7423-.3866-1.16121v-3.4469c-.0073-.43362.124-.85253.3866-1.19796.2772-.30133.671-.46301 1.0795-.46301.4158-.03675.817.13964 1.0795.46301.2626.34543.4012.76434.3866 1.19796z" fill="#737373"/><path d="m48.2574 12.2368c3.3407-.0367 6.0395-2.75603 6.0687-6.11473 0-3.38075-2.7207-6.11474578-6.0687-6.11474578s-6.0687 2.74134578-6.0687 6.11474578c.0291 3.3587 2.728 6.07803 6.0687 6.11473z" fill="#262626"/><path d="m74.4286 49.2119-12.6043-16.9992 12.2979-16.9993h-11.8383l-9.0302 13.2437v-13.2364h-9.9929v18.4692l-10.8391-18.4692h-10.1461v18.55c0 4.8433-2.5748 7.0114-6.2656 7.0114-3.2313 0-5.8791-1.977-5.8791-6.1956v-19.3658h-10.1023355v20.8725c0 9.1721 5.8061155 14.0521 12.6042355 14.0521 4.4567 0 7.8412-1.6242 9.6428-4.1451v3.2117h10.1097v-18.1605l12.7939 18.1605h8.0673v-13.4715l9.6865 13.4715z" fill="#262626"/><g fill="#737373"><path d="m16.9356 54.1287v4.7625c.0146.7276-.5544 1.3302-1.2765 1.3449s-1.3202-.5512-1.3348-1.2788c0-.022 0-.0441 0-.0588v-1.8226c-.0365-.7129.5106-1.3156 1.2181-1.3523h.0875c.372 0 .7149.191.9264.4997v-2.0872c0-.0441.0292-.0809.0729-.0809h.2334c.0365 0 .073.0368.073.0735zm-.3793 2.9398c.0511-.4851-.3064-.9187-.7878-.9628-.0437-.0073-.0948-.0073-.1386 0-.5105 0-.919.4116-.9263.9261v.0441 1.8226c-.0292.4924.3428.9261.8388.9555h.0875c.5106 0 .9191-.4116.9264-.9261 0-.0147 0-.0294 0-.0441z"/><path d="m17.935 54.8711c-.0146-.1397.0802-.2573.2115-.272h.0583c.1459 0 .2699.125.2699.272 0 .1469-.124.2719-.2699.2719-.1531.0367-.2698-.0809-.2698-.2719zm.0802 5.2254v-4.2186c0-.0441.0365-.0735.0729-.0735h.2334c.0438 0 .073.0368.073.0735v4.2186c0 .0441-.0365.0735-.073.0735h-.2334c-.0364 0-.0729-.0294-.0729-.0735z"/><path d="m21.9686 57.0759v3.5645c.0219.7276-.5397 1.3376-1.2618 1.3596-.7222.0221-1.3276-.5438-1.3495-1.2714 0-.0147 0-.0294 0-.0515 0-.0441.0365-.0735.073-.0735h.2334c.0365 0 .0729 0 .0729.0735-.051.4777.2991.9113.7732.9628.0365.0073.073.0073.1094.0073.4887.0221.9045-.3454.9337-.8304 0-.0441 0-.0956 0-.1397v-1.0436c-.2043.3234-.5471.5292-.9264.5365-.7075.0147-1.291-.5512-1.3056-1.2641 0-.0294 0-.0588 0-.0882v-1.6683c-.0365-.7129.5106-1.3156 1.2181-1.3523h.0875c.6565-.0882 1.2546.3821 1.3348 1.0362.0146.0809.0146.1617.0073.2426zm-.3793 1.661v-1.661c.0511-.4851-.3063-.9187-.7877-.9628-.0438-.0073-.0948-.0073-.1386 0-.496-.022-.9045.3748-.9191.8746v.0882 1.6683c-.0437.5145.3356.9628.8462 1.0069.5105.0441.9555-.3381.9992-.8526 0-.0514 0-.1028 0-.1616z"/><path d="m22.9312 54.8711c-.0146-.1323.0803-.2573.2116-.272h.0583c.1459 0 .2699.125.2699.272 0 .1469-.124.2719-.2699.2719-.1532.0367-.2699-.0809-.2699-.2719zm.1167 5.2254v-4.2186c0-.0441.0365-.0735.073-.0735h.2334c.0438 0 .0729.0368.0729.0735v4.2186c0 .0441-.0364.0735-.0729.0735h-.2334c-.0365 0-.073-.0294-.073-.0735z"/><path d="m26.1627 59.8613v.2352c0 .0441-.0365.0735-.0802.0735h-.1167c-.7659 0-1.189-.4998-1.189-1.3964v-2.5943h-.5397c-.0438 0-.073-.0368-.073-.0735v-.2352c0-.0441.0365-.0735.073-.0735h.5397v-1.1612c0-.0441.0365-.0735.073-.0735h.2334c.0437 0 .0729.0367.0802.0735v1.1612h.8097c.0437 0 .0729.0367.0802.0735v.2352c0 .0441-.0365.0735-.0802.0735h-.8097v2.5943c0 .6615.2699 1.0436.7659 1.0436h.1167c.0729-.0294.1167.0074.1167.0441z"/><path d="m26.6587 58.8911c-.0073-.6835.5324-1.242 1.2108-1.242.0437 0 .0875 0 .1313.0073h.8461v-.5806c.0511-.4777-.2991-.9113-.7732-.9628-.0364-.0073-.0729-.0073-.1094-.0073-.4595-.0221-.8607.3307-.8826.7937v.0515c0 .0441-.0365.0735-.0802.0735h-.2334c-.0438 0-.073-.0368-.0803-.0735.0146-.7056.5909-1.2715 1.2911-1.2568s1.2619.5953 1.2473 1.3009v.0735 1.8226c.0365.7129-.5179 1.3229-1.2254 1.3597-.7076.0367-1.313-.5218-1.3494-1.2347.0073-.0368.0073-.0809.0073-.125zm2.1882 0v-.8892h-.8826c-.4668-.0588-.8899.2719-.9555.7349-.0073.0514-.0073.1029-.0073.1543-.0219.5145.3647.9481.8753.9775.5106.0221.9409-.3675.9701-.8819.0073-.0294.0073-.0588 0-.0956z"/><path d="m30.2693 60.0965v-5.9678c0-.0441.0365-.0735.0802-.0735h.2334c.0438 0 .073.0368.0803.0735v5.9604c0 .0441-.0365.0735-.0803.0735h-.2334c-.0802.0074-.0802-.0294-.0802-.0661z"/><path d="m38.2273 57.0758v3.0207c0 .0441-.0365.0735-.0803.0735h-.2334c-.0438 0-.0729-.0368-.0802-.0735v-3.0207c0-.5438-.2699-.9701-.8097-.9701-.4741.0221-.8388.4263-.8096.904 0 .022 0 .0441.0073.0661v3.0207c0 .0441-.0365.0735-.0803.0735h-.2334c-.0437 0-.0729-.0368-.0802-.0735v-3.0207c.0583-.4703-.2772-.9039-.744-.9627-.0219 0-.0438-.0074-.0656-.0074-.5398 0-.8097.4263-.8097.9701v3.0207c0 .0441-.0365.0735-.0802.0735h-.2334c-.0438 0-.073-.0368-.0803-.0735v-3.0207c-.0656-.6761.4231-1.2788 1.0941-1.3523.0438-.0073.0876-.0073.1313-.0073.445 0 .8389.2793.9993.6982.1605-.4189.5544-.6909.9993-.6982.6711.0294 1.1817.5953 1.1525 1.2714.0438.0294.0365.0588.0365.0882z"/><path d="m39.1096 58.8911c-.0073-.6835.5325-1.242 1.2108-1.242.0438 0 .0875 0 .1313.0073h.8826v-.5806c.051-.4777-.2991-.9113-.7732-.9628-.0365-.0073-.0729-.0073-.1094-.0073-.4595-.0221-.8607.3307-.8826.7937v.0515c0 .0441-.0365.0735-.0802.0735h-.2699c-.0438 0-.0729-.0368-.0802-.0735.0146-.7056.5908-1.2715 1.291-1.2568.7003.0147 1.2619.5953 1.2473 1.3009v.0735 1.8226c.0365.7129-.5179 1.3229-1.2254 1.3597-.7075.0367-1.3129-.5218-1.3494-1.2347.0073-.0368.0073-.0809.0073-.125zm2.1882 0v-.8892h-.8826c-.4668-.0588-.8898.2719-.9555.7349-.0073.0514-.0073.1029-.0073.1543-.0583.4778.2772.904.7513.9628.0584.0074.1167.0074.1751 0 .4814.0294.8971-.3454.9263-.8305 0-.0367 0-.0808-.0073-.1323z"/><path d="m42.6107 60.0964v-2.9838c-.0292-.7203.5252-1.3229 1.2327-1.3523h.1094.3429c.0437 0 .0729.0367.0802.0734v.2352c0 .0441-.0365.0735-.0802.0735h-.3429c-.5033-.0294-.9336.3528-.9628.8599v.1103 2.9838c0 .0441-.0365.0735-.0802.0735h-.2334c-.0292 0-.0657-.0367-.0657-.0735z"/><path d="m47.5271 58.972v1.1245c0 .0441-.0365.0735-.0803.0735h-.2261c-.0438 0-.0729-.0368-.0802-.0735v-1.1245c.0364-.4556-.2918-.8525-.744-.8966-.0584-.0074-.1167-.0074-.1751.0073h-.7659v2.0138c0 .0441-.0364.0735-.0802.0735h-.2334c-.0438 0-.073-.0368-.0803-.0735v-5.9678c0-.0441.0365-.0735.0803-.0735h.2334c.0438 0 .0729.0368.0802.0735v3.5645h.6127l1.0723-1.8226c0-.0368.0364-.0368.0802-.0368h.2699c.0365 0 .0802.0368.0365.0735l-1.116 1.8594c.6418.0294 1.1378.5659 1.116 1.2053z"/><path d="m48.2931 58.8912v-1.8153c-.0219-.7276.5398-1.3376 1.2619-1.3596.7221-.0221 1.3275.5438 1.3494 1.2714v.0515c.0219.6835-.5106 1.2567-1.1889 1.2861-.0511 0-.1022 0-.1532-.0073h-.8461v.5806c-.0365.485.3282.9187.8169.9628.4887.0367.9191-.3234.9555-.8158.0073-.0515.0073-.0956 0-.147 0-.0441.0365-.0735.073-.0735h.2334c.0437 0 .0729.0367.0729.0735.0365.6908-.4887 1.2788-1.1743 1.3155-.0292 0-.0657 0-.0949 0-.6637.0588-1.2545-.4409-1.3056-1.1171 0-.0661 0-.1323 0-.2058zm1.2327-.9628c.4741.0515.9045-.3013.9555-.779.0073-.0367.0073-.0735.0073-.1102.0365-.4925-.3282-.9261-.8169-.9628-.0219 0-.0438 0-.0657 0-.4668-.0221-.868.3381-.8898.8158 0 .0514 0 .1029.0073.1543v.8525h.8096z"/><path d="m53.3696 59.8613v.2352c0 .0441-.0365.0735-.073.0735h-.1167c-.7658 0-1.1889-.4998-1.1889-1.3964v-2.5943h-.5398c-.0437 0-.0729-.0368-.0729-.0735v-.2352c0-.0441.0365-.0735.0729-.0735h.5398v-1.1612c0-.0441.0365-.0735.0729-.0735h.2335c.0437 0 .0729.0367.0729.0735v1.1612h.8096c.0438 0 .073.0367.073.0735v.2352c0 .0441-.0365.0735-.073.0735h-.8096v2.5943c0 .6615.2699 1.0436.7659 1.0436h.1167c.0802-.0294.1167.0074.1167.0441z"/><path d="m54.0626 54.8711c-.0145-.1323.0803-.2573.2116-.272h.0583c.1459 0 .2699.125.2699.272 0 .1469-.124.2719-.2699.2719-.1605.0367-.2699-.0809-.2699-.2719zm.1167 5.2254v-4.2186c0-.0441.0365-.0735.073-.0735h.2334c.0438 0 .0729.0368.0729.0735v4.2186c0 .0441-.0364.0735-.0729.0735h-.2699c-.0438 0-.0438-.0367-.0365-.0735z"/><path d="m55.6018 60.0965v-2.9839c-.0583-.7129.4742-1.3376 1.1817-1.3891.0292 0 .0583-.0073.0875-.0073.7003-.0074 1.2692.5586 1.2765 1.2641 0 .0441 0 .0882-.0073.1323v2.9839c0 .0441-.0365.0735-.0729.0735h-.2335c-.0437 0-.0729-.0368-.0729-.0735v-2.9839c0-.6174-.3064-1.0069-.8826-1.0069-.4887-.0073-.8826.3895-.8899.8746 0 .0441 0 .0882.0073.1323v2.9839c0 .0441-.0364.0735-.0729.0735h-.2334c-.0584 0-.0876-.0294-.0876-.0735z"/><path d="m61.6338 57.0759v3.5645c.0219.7276-.5398 1.3376-1.2619 1.3596-.7221.0221-1.3275-.5438-1.3494-1.2714 0-.0147 0-.0294 0-.0515 0-.0441.0365-.0735.0729-.0735h.2335c.0364 0 .0729 0 .0729.0735-.0511.4777.2991.9113.7732.9628.0365.0073.0729.0073.1094.0073.4814.0294.8972-.3454.9263-.8304 0-.0441 0-.0956 0-.1397v-1.0436c-.1969.3234-.5397.5292-.919.5438-.7075.0147-1.2911-.5512-1.3057-1.2641 0-.0294 0-.0588 0-.0882v-1.6756c-.0364-.7129.5106-1.3156 1.2182-1.3523h.0875c.6565-.0882 1.2546.3821 1.3348 1.0362.0073.0809.0073.1617.0073.2426zm-.3866 1.661v-1.661c.0511-.4851-.3063-.9187-.7877-.9628-.0438-.0073-.0949-.0073-.1386 0-.496-.0147-.9118.3748-.9264.8746v.0882 1.6683c-.0438.5145.3355.9628.8461 1.0069s.9556-.3381.9993-.8526c.0146-.0514.0146-.1028.0073-.1616z"/></g></svg>