<svg fill="none" height="63" viewBox="0 0 61 63" width="61" xmlns="http://www.w3.org/2000/svg"><g clip-rule="evenodd" fill-rule="evenodd"><path d="m8.7526 38.6891h12.17v4.9349h-19.44403v-21.4887h13.77873l3.2173 4.9349h-9.722v3.5606h8.8128v4.4977h-8.8128zm25.1094-16.5538-4.1266 6.9963-4.1266-6.9963h-8.0434l8.463 12.9932v8.4955h7.2741v-8.4955l8.533-12.9932zm-29.86549 31.9208h-2.51794v-5.2473h2.51794c1.18902 0 1.8185.4998 1.8185 1.3743 0 .4373-.27977.8121-.69943 1.062.27977.1249.90926.4372.90926 1.1868 0 .9995-.76937 1.6242-2.02833 1.6242zm.8393-1.6242c0-.4997-.27977-.7496-.90925-.7496h-1.39885v1.4992h1.39885c.62948 0 .90925-.2498.90925-.7496zm-.13988-2.1239c0-.3748-.27977-.5622-.76937-.5622h-1.32891v1.1245h1.39886c.55954 0 .69942-.3124.69942-.5623zm3.70695 3.873c.41966 0 .76937-.1249 1.04914-.3748v.3124h1.04918v-3.8106h-1.04918v2.1239c0 .6247-.27976.937-.76936.937-.55954 0-.76937-.3123-.76937-.937v-2.1239h-1.04914v2.1864c-.06995.5622.13988 1.6866 1.53873 1.6866zm14.68792-2.2488c0-.6247.2798-.937.8394-.937.5595 0 .7693.3123.7693.937v2.1239h1.0492v-2.1239c0-1.1244-.5596-1.7491-1.6087-1.7491-.4197 0-.8393.1249-1.0492.3748v-.3123h-1.0491v3.8105h1.0491zm-11.6104 2.1239h1.0491v-3.8105h-1.0491zm2.0283 0h1.0491v-5.4347l-1.0491.4998zm4.4064-4.9349 1.0491-.4998v5.4347h-1.0491v-.2499c-.2798.2499-.6295.3748-.9792.3748-1.0491 0-1.6786-.7496-1.6786-2.0614 0-1.1869.6295-1.9365 1.6786-1.9365.3497 0 .6994.1249.9792.3748zm0 3.8105v-1.4992c-.1399-.1874-.3497-.3748-.7694-.3748-.3497 0-.7694.1874-.7694 1.0619 0 .9995.4197 1.1869.8394 1.1869.3497 0 .5595-.1874.6994-.3748zm24.9695-.8121c0 1.3118-.6295 2.0614-1.6786 2.0614-.3497 0-.6995-.1249-.9792-.3748v.3124h-1.0492v-4.8725l1.0492-.4997v1.749c.2797-.2498.6295-.3748.9792-.3748 1.0491.0625 1.6786.8121 1.6786 1.999zm-2.5879-.6871v1.4992c.1399.1249.3497.3748.7694.3748.5595 0 .7694-.3748.7694-1.1869s-.4197-1.0619-.8393-1.0619c-.2798 0-.5596.1249-.6995.3748zm-11.1908-1.1869h1.0491v3.4357c0 1.2493-.6994 1.874-2.0982 1.9365l-.3497-.7496h.0699c1.3989 0 1.3989-.6247 1.3989-.9995v-.0625c-.2798.2499-.6295.3748-.9793.3748-1.0491 0-1.6786-.7496-1.6786-2.0614 0-1.1869.6295-1.9365 1.6786-1.9365.3498 0 .6995.1249.9793.3748v-.3123zm-.7694.8121c-.3497 0-.7693.1874-.7693 1.0619 0 .9995.4196 1.1869.8393 1.1869.3497 0 .5595-.1874.7694-.3748v-1.4992c-.2099-.1874-.4197-.3748-.8394-.3748zm4.6862-.4998c.4896-.2499 1.0491-.3748 1.6087-.3748 1.1191 0 1.7485.4997 1.7485 1.3118v2.5612h-1.0491v-.3123c-.2798.3123-.7694.3748-1.0491.3748-.7694 0-1.6087-.3749-1.6087-1.3743 0-.937.9092-1.2494 1.7486-1.2494.3497 0 .6994.0625.9092.1874v-.2498c0-.3748-.2798-.5622-.7694-.5622-.4196 0-.7693.1249-1.1191.2498zm1.4688 2.811c.4196 0 .6994-.1874.8393-.3748v-.4997c-.2798-.1249-.4896-.1874-.8393-.1874-.4896 0-.7694.1874-.7694.5622.07.3123.3497.4997.7694.4997zm12.5197.1874c-.4196.3749-.9792.6247-1.5387.6247-1.259 0-2.0284-.7496-2.0284-1.9989 0-1.1869.8394-1.999 1.9584-1.999 1.1191 0 1.8185.8121 1.8185 1.999v.3123h-2.6578c.07.7496.7694.8121.9792.8121.4197 0 .6295-.1874.8393-.3124zm-.8393-1.8115c0-.3748-.2798-.8121-.8393-.8121-.4197 0-.7694.3124-.7694.8121zm11.1209 1.8115c-.4197.3749-.9792.6247-1.5387.6247-1.259 0-2.0284-.7496-2.0284-1.9989 0-1.1869.8393-1.999 1.9584-1.999s1.8185.8121 1.8185 1.999v.3123h-2.6578c.0699.7496.7694.8121.9792.8121.4196 0 .6295-.1874.8393-.3124zm-.8393-1.8115c0-.3748-.2798-.8121-.8393-.8121-.4197 0-.7694.3124-.7694.8121zm-4.1966-.6247h.9792v-.8745h-.9792v-1.4368l-1.0491.4998v.9994h-.6295v.8746h.6295v1.874c0 .5622.2797 1.1869 1.1191 1.1869.3497 0 .6294-.0625.9092-.1874l.1399-.8746c-.2098.0625-.4197.1874-.6295.1874-.3497 0-.4896-.1874-.4896-.4997zm-1.9584 1.9365c-.2098.0625-.4196.1874-.6295.1874-.3497 0-.4896-.1874-.4896-.4997v-1.6242h.9093v-.8745h-.9093v-1.4368l-1.0491.4998v.9994h-.6994v.8746h.6994v1.874c0 .5622.2798 1.1869 1.1191 1.1869.3497 0 .6295-.0625.9092-.1874zm10.7012-2.6861c-.2098-.1249-.4896-.2499-.8393-.2499s-.6994.125-.9792.4373v-.3123h-1.0491v3.8105h1.0491v-2.0614c0-.6247.2798-.8746.7694-.8746.2798 0 .4896.0625.6994.1874zm-49.5193-.6871h1.0491v-.937h-1.0491zm8.463 4.3727h1.0492v-3.8105h-1.0492zm0-4.3727h1.0492v-.937h-1.0492zm30.4251 6.1218 1.0491-.4998v5.4347h-1.0491v-.3123c-.2798.2498-.6295.3748-.9792.3748-1.0492 0-1.6787-.7496-1.6787-2.0615 0-1.1868.6295-1.9364 1.6787-1.9364.3497 0 .6994.1249.9792.3748zm0 3.748v-1.4992c-.1399-.1874-.3497-.3748-.7694-.3748-.3497 0-.7694.1874-.7694 1.0619 0 .9995.4197 1.1869.8393 1.1869.3497.0625.4896-.1874.6995-.3748zm-36.0205-2.4987c-.2098-.1249-.4896-.2498-.8393-.2498s-.6994.1249-.9792.4372v-.3123h-1.0491v3.8105h1.0491v-2.0614c0-.6247.2798-.8746.7694-.8746.2797 0 .4896.0625.6994.1874zm-9.02259 1.2494c-.06994.3748-.20983.6871-.20983.937-.06994-.3124-.20982-.6872-.27977-.937l-.41966-1.4368h-.90925l-.41965 1.4368c-.06994.2498-.20984.6871-.27978.937-.06994-.3124-.13987-.6872-.20982-.937l-.41966-1.4368h-1.11908l1.18903 3.8105h.90925l.4896-1.5617c.06995-.2498.20982-.6871.20982-.8745.06994.1874.13989.5622.20983.8121l.4896 1.5617h.90925l1.25897-3.6856h-1.04914zm5.59539.5622c0 1.1869-.8393 1.9989-1.95837 1.9989-1.11909 0-1.9584-.812-1.9584-1.9989s.83931-1.999 1.9584-1.999c1.11907 0 1.95837.8121 1.95837 1.999zm-1.11907 0c0-.6872-.3497-1.1244-.90924-1.1244s-.90926.4372-.90926 1.1244c0 .6871.34972 1.1244.90926 1.1244s.90924-.4998.90924-1.1244zm35.60077-1.8116c-.2098-.1249-.4896-.2498-.8393-.2498s-.6994.1249-.9792.4372v-.3123h-1.0491v3.8105h1.0491v-2.0614c0-.6247.2798-.8746.7694-.8746.2798 0 .4896.0625.6994.1874zm-9.0925 1.2494c-.0699.3748-.2098.6871-.2098.937-.07-.3124-.2099-.6872-.2798-.937l-.4197-1.3743h-.9092l-.4197 1.4367c-.0699.2499-.2098.6872-.2797.937-.07-.3123-.1399-.6871-.2099-.937l-.4196-1.4367h-1.1191l1.189 3.8105h.9093l.4896-1.5617c.0699-.2499.2098-.6871.2098-.8745.0699.1874.1399.5622.2098.812l.4896 1.5617h.9093l1.189-3.8105h-1.0491zm5.5954.5622c0 1.1869-.8393 1.9989-1.9584 1.9989s-1.9584-.812-1.9584-1.9989.8393-1.999 1.9584-1.999 1.9584.8121 1.9584 1.999zm-1.1191 0c0-.6872-.3497-1.1244-.9092-1.1244-.5596 0-.9093.4372-.9093 1.1244 0 .6871.3497 1.1244.9093 1.1244.5595 0 .9092-.4998.9092-1.1244zm-22.3816-1.9365h-1.259l-.8393.9995c-.1399.1249-.2798.3123-.4196.4997v-3.0609l-1.0492.4997v4.935h1.0492v-1.1869l.5595-.6247.9092 1.7491h1.1891l-1.3289-2.5612zm3.9168 1.6866c0-.6247.2797-.937.8393-.937.5595 0 .7694.3123.7694.937v2.1239h1.0491v-2.1239c0-1.1244-.5595-1.7491-1.6087-1.7491-.4196 0-.8393.125-1.0491.3748v-.3123h-1.0492v3.8105h1.0492zm6.085-1.6866h1.0491v3.4357c0 1.2493-.6994 1.874-2.0983 1.9365l-.3497-.7496h.07c1.3988 0 1.3988-.6247 1.3988-.9995v-.0625c-.2797.2499-.6295.3748-.9792.3748-1.0491 0-1.6786-.7496-1.6786-2.0614 0-1.1869.6295-1.9365 1.6786-1.9365.3497 0 .6995.125.9792.3748v-.3123zm-.7694.7496c-.3497 0-.7694.1874-.7694 1.0619 0 .9995.4197 1.1869.8394 1.1869.3497 0 .5595-.1874.7693-.3748v-1.4992c-.2098-.1249-.4896-.3748-.8393-.3748zm-8.3931 3.0609h1.0491v-3.8105h-1.0491zm0-4.3727h1.0491v-.937h-1.0491zm26.6481 4.3727h1.0492v-5.4347l-1.0492.4998z" fill="#262626"/><path d="m49.039.0300293-48.050597 15.4918707 48.050597-7.49606z" fill="#737373"/></g></svg>