<svg fill="none" height="62" viewBox="0 0 63 62" width="63" xmlns="http://www.w3.org/2000/svg"><g fill="#262626"><path d="m44.2376 0h-26.355c-4.7184 0-9.24356 1.87438-12.57999 5.21081s-5.2108131 7.86159-5.2108131 12.57999v44.1458h44.1458031c2.3363 0 4.6498-.4601 6.8082-1.3543 2.1585-.894 4.1197-2.2045 5.7718-3.8565 1.652-1.6521 2.9625-3.6133 3.8565-5.7718.8942-2.1584 1.3543-4.4719 1.3543-6.8082v-26.355c-.0005-4.7182-1.875-9.24309-5.2114-12.5794-3.3363-3.33632-7.8612-5.21087476-12.5794-5.2114zm-38.50044 58.3513c-.04017.4354-.24127.8402-.56398 1.1353-.32272.2951-.74386.4592-1.18113.4603-.0556-.0003-.11114-.0037-.16639-.0099-.34613-.0321-.67495-.1662-.94486-.3852-.26992-.2191-.46881-.5132-.57148-.8453-.10268-.3321-.10454-.6873-.00535-1.0204.0992-.3331.29498-.6294.56259-.8512.26761-.2219.59502-.3594.94079-.3951.34577-.0358.69437.0319 1.00169.1943.3073.1626.55953.4124.72474.7183.16521.3058.236.6538.20338.9999zm0-4.7005c-.03997.4354-.24103.8403-.56382 1.1351-.32279.295-.74405.4589-1.18129.4595-.05558 0-.11112-.003-.16639-.0089-.34613-.0321-.67495-.1662-.94486-.3852-.26992-.2191-.46881-.5133-.57148-.8453-.10268-.3321-.10454-.6873-.00535-1.0204.0992-.3331.29498-.6294.56259-.8512.26761-.2219.59502-.3594.94079-.3951.34577-.0358.69437.0319 1.00169.1943.3073.1624.55953.4124.72474.7183.16521.3058.236.6538.20338.9999zm0-4.6183c-.04019.4353-.24132.84-.56406 1.1349-.32273.2949-.74387.4588-1.18105.4597-.05561.0002-.11118-.0032-.16639-.0099-.34587-.032-.67451-.1657-.9444-.3844-.26989-.2186-.46891-.5124-.57192-.8441-.10302-.3317-.1054-.6865-.00685-1.0196s.29361-.6295.56054-.8517c.26693-.2223.59374-.3605.93916-.397.34541-.0367.69391.03 1.00149.1914.30756.1614.56039.4104.72655.7153.16615.3051.23816.6525.20693.9985zm1.21029 4.2518c.03241-.3381.16225-.6597.3738-.9254.21155-.2658.4957-.4645.81796-.5721.32227-.1074.6688-.119.99755-.0334.32875.0855.62559.2648.85449.5158.22895.251.38005.563.43505.8983.0551.3352.0116.6792-.1251.9903-.1367.311-.36064.5756-.64478.7618s-.61622.2859-.95593.2871c-.05562.0002-.11119-.0031-.16639-.0099-.46278-.0427-.88965-.2674-1.18681-.6247-.29715-.3574-.44026-.818-.39786-1.2808v-.007zm3.54375 5.067c-.0405.4353-.2416.84-.56426 1.135-.32267.2951-.7437.4593-1.18089.4606-.05561-.0003-.11115-.0037-.16639-.0099-.34613-.0321-.67495-.1662-.94487-.3852-.26992-.2191-.4688-.5132-.57148-.8453s-.10454-.6873-.00535-1.0204c.0992-.3331.29499-.6294.5626-.8512.26761-.2219.59501-.3594.94078-.3951.34578-.0358.69437.0319 1.00169.1943.30731.1626.55947.4124.72467.7183.1653.3058.236.6538.2035.9999zm4.7124 0c-.0404.4347-.241.8388-.5628 1.1337s-.7419.4596-1.1784.4619c-.0556-.0003-.1111-.0037-.1664-.0099-.3461-.0321-.675-.1662-.9448-.3852-.2699-.2191-.4688-.5132-.5715-.8453s-.1046-.6873-.0054-1.0204.295-.6294.5626-.8512c.2676-.2219.595-.3594.9408-.3951.3457-.0358.6944.0319 1.0017.1943.3073.1626.5595.4124.7247.7183.1653.3058.236.6538.2034.9999zm38.0557-15.5901c.0001 1.3843-.2724 2.755-.8021 4.0339-.5295 1.279-1.3059 2.441-2.2847 3.4199-.9787.979-2.1406 1.7556-3.4195 2.2854-1.2788.5298-2.6494.8027-4.0337.8028h-23.3144c-1.3843.0004-2.755-.2719-4.0341-.8013-1.279-.5294-2.4412-1.3055-3.4204-2.284-.9791-.9786-1.7559-2.1404-2.28594-3.4191-.5301-1.2787-.80314-2.6494-.80353-4.0337v-23.3173c-.00038-1.3843.27188-2.755.80125-4.0341.52942-1.279 1.30542-2.4412 2.28402-3.4204.9786-.9791 2.1404-1.7559 3.4191-2.28594 1.2787-.5301 2.6493-.80314 4.0337-.80353h23.3183c1.3843-.00013 2.755.2724 4.034.80201 1.2789.52956 2.4409 1.30596 3.4199 2.28476.9789.9787 1.7555 2.1406 2.2853 3.4195.5298 1.2788.8027 2.6494.8028 4.0337z"/><path d="m35.8329 13.9349c0-.4467.4398-.7141 1.1717-.7141h7.543c.8785 0 1.245.2674 1.245.7141v34.2981c0 .4457-.3665.7141-1.245.7141h-7.543c-.7319 0-1.1717-.2684-1.1717-.7141v-14.2036h-9.3743v14.2036c0 .4457-.4387.7141-1.1716.7141h-7.543c-.8785 0-1.245-.2684-1.245-.7141v-34.2981c0-.4467.3665-.7141 1.245-.7141h7.543c.7329 0 1.1716.2674 1.1716.7141v14.2006h9.3743z"/></g></svg>