<svg width="124" height="146" viewBox="0 0 124 146" fill="none" xmlns="http://www.w3.org/2000/svg">
<path d="M112.885 69.5355C117.268 62.7649 119.482 54.2926 119.482 44.2648C119.482 0 78.6849 0 65.3359 0C62.0238 0 57.4308 0.30193 52.5267 0.62216C49.3702 0.832596 46.1221 1.04303 43.7159 1.12538L0 0.631309V41.9958H12.0772V141.239L23.8159 143.069C28.7566 143.838 35.6461 144.57 42.682 145.073L47.6592 145.476H47.8697C53.5789 145.823 58.6751 145.997 63.4237 145.997C64.8327 145.997 66.2142 145.997 67.6507 145.997C69.0872 145.997 70.3955 145.997 71.8045 145.997C74.7876 146.024 77.7696 145.871 80.7343 145.54C87.9599 144.533 94.9366 142.197 101.311 138.65C115.822 130.498 123.81 116.975 123.81 100.57C123.837 87.7245 120.15 77.2667 112.885 69.5355ZM57.7419 40.8521C60.0567 40.7606 62.1062 40.7057 63.6524 40.7057C74.22 40.7057 74.22 40.7057 74.22 46.1313C74.22 50.2211 73.607 50.7975 73.488 50.8707C71.8777 51.8588 65.8483 51.8588 62.9571 51.8588H57.7236L57.7419 40.8521ZM74.8604 104.761C72.445 105.392 68.8218 105.392 65.1621 105.392H64.3386C62.1336 105.392 59.8554 105.392 57.6504 105.246V92.7567H63.0394C77.8706 92.7567 77.8706 93.9735 77.8706 99.0789C77.8889 101.961 75.9401 104.303 74.8604 104.761Z" fill="url(#paint0_linear_2708_903)"/>
<path d="M88.7511 71.2739C93.9023 69.2884 105.577 64.9333 105.577 44.2557C105.577 16.4415 84.5333 13.8705 65.3195 13.8705C60.269 13.8705 49.3538 14.7854 43.3609 15.005V27.8142C47.5788 27.4482 57.817 26.8352 63.6543 26.8352C75.5485 26.8352 88.0924 27.622 88.0924 46.1313C88.0924 65.7293 74.1395 65.7293 62.959 65.7293H43.3335V78.8862H63.0596C75.1277 78.8862 91.7613 78.9868 91.7613 99.0789C91.7613 107.853 84.9084 116.81 79.126 117.972L78.5496 131.852C97.0496 130.114 109.969 119.043 109.969 100.662C109.969 77.0105 94.2408 72.8567 88.7511 71.2739Z" fill="url(#paint1_linear_2708_903)"/>
<path d="M79.1237 117.972C74.4849 119.354 69.1874 119.271 64.3382 119.271C59.0853 119.284 53.8353 119.018 48.6104 118.476L43.7612 117.78L43.9168 15.0049L13.8701 14.6389V28.1251H25.9473V129.363C30.3939 130.059 36.826 130.745 43.7612 131.239L48.711 131.642C53.5328 131.934 58.5375 132.136 63.4507 132.136C69.1234 132.136 74.366 132.437 79.1237 131.852V117.972Z" fill="white"/>
<path d="M91.2658 128.961L84.9069 131.276L79.1245 131.852V117.973L85.4833 113.919L91.2658 104.093V128.961Z" fill="url(#paint2_linear_2708_903)"/>
<defs>
<linearGradient id="paint0_linear_2708_903" x1="108.475" y1="13.166" x2="-3.7604" y2="125.402" gradientUnits="userSpaceOnUse">
<stop offset="0.26" stop-color="#FF1B43"/>
<stop offset="0.71" stop-color="#BE0000"/>
</linearGradient>
<linearGradient id="paint1_linear_2708_903" x1="43.3335" y1="72.8567" x2="109.969" y2="72.8567" gradientUnits="userSpaceOnUse">
<stop stop-color="#B3B3B3"/>
<stop offset="0.19" stop-color="white"/>
</linearGradient>
<linearGradient id="paint2_linear_2708_903" x1="79.1245" y1="117.973" x2="91.2658" y2="117.973" gradientUnits="userSpaceOnUse">
<stop stop-opacity="0.25"/>
<stop offset="1" stop-opacity="0"/>
</linearGradient>
</defs>
</svg>
