<svg width="561" height="145" viewBox="0 0 561 145" fill="none" xmlns="http://www.w3.org/2000/svg">
<path d="M112.777 69.0356C117.128 62.3137 119.326 53.9023 119.326 43.9466C119.326 0 78.8224 0 65.5693 0C62.2811 0 57.7211 0.29976 52.8522 0.617687C49.7184 0.82661 46.4937 1.03553 44.1047 1.11729L0.703125 0.62677V41.6939H12.6935V140.224L24.3478 142.041C29.253 142.804 36.093 143.53 43.0783 144.03L48.0198 144.43H48.2287C53.8969 144.775 58.9565 144.947 63.6709 144.947C65.0697 144.947 66.4414 144.947 67.8675 144.947C69.2936 144.947 70.5926 144.947 71.9915 144.947C74.9531 144.974 77.9136 144.822 80.8571 144.493C88.0307 143.494 94.9572 141.175 101.286 137.653C115.693 129.56 123.623 116.134 123.623 99.8473C123.65 87.0938 119.989 76.7113 112.777 69.0356ZM58.0299 40.5584C60.3281 40.4676 62.3628 40.4131 63.8979 40.4131C74.3895 40.4131 74.3895 40.4131 74.3895 45.7997C74.3895 49.86 73.7809 50.4323 73.6628 50.505C72.0641 51.486 66.078 51.486 63.2076 51.486H58.0118L58.0299 40.5584ZM75.0254 104.008C72.6273 104.634 69.0302 104.634 65.3967 104.634H64.5792C62.3901 104.634 60.1282 104.634 57.9391 104.489V92.0898H63.2893C78.0139 92.0898 78.0139 93.298 78.0139 98.3666C78.0321 101.228 76.0973 103.553 75.0254 104.008Z" fill="url(#paint0_linear_3028_915)"/>
<path d="M88.8153 70.7614C93.9293 68.7902 105.52 64.4664 105.52 43.9374C105.52 16.3232 84.6277 13.7707 65.5521 13.7707C60.5379 13.7707 49.7011 14.6791 43.7514 14.8971V27.6141C47.9389 27.2508 58.1035 26.6422 63.8989 26.6422C75.7076 26.6422 88.1612 27.4234 88.1612 45.7996C88.1612 65.2567 74.3087 65.2567 63.2085 65.2567H43.7241V78.319H63.3084C75.2897 78.319 91.8038 78.4189 91.8038 98.3665C91.8038 107.078 85.0001 115.971 79.2593 117.124L78.687 130.904C97.0541 129.178 109.88 118.187 109.88 99.938C109.88 76.4568 94.2654 72.3329 88.8153 70.7614Z" fill="url(#paint1_linear_3028_915)"/>
<path d="M79.2571 117.124C74.6517 118.496 69.3923 118.414 64.578 118.414C59.3628 118.426 54.1506 118.162 48.9632 117.624L44.1489 116.934L44.3033 14.8971L14.4727 14.5337V27.923H26.463V128.433C30.8777 129.124 37.2635 129.805 44.1489 130.296L49.0631 130.695C53.8502 130.986 58.8189 131.186 63.6968 131.186C69.3287 131.186 74.5336 131.485 79.2571 130.904V117.124Z" fill="white"/>
<path d="M91.3123 128.034L84.9992 130.332L79.2583 130.904V117.124L85.5714 113.1L91.3123 103.344V128.034Z" fill="url(#paint2_linear_3028_915)"/>
<path d="M214.961 74.269C214.961 84.3498 212.644 92.4592 208.01 98.5972C203.376 104.694 197.157 107.743 189.352 107.743C181.019 107.743 174.577 104.796 170.024 98.902L169.475 106.524H159.11V12.8692H170.39V47.8067C174.943 42.1565 181.223 39.3314 189.231 39.3314C197.238 39.3314 203.519 42.3598 208.071 48.4164C212.664 54.4731 214.961 62.7654 214.961 73.2934V74.269ZM203.681 72.9885C203.681 65.3059 202.197 59.3712 199.23 55.1844C196.263 50.9976 191.995 48.9042 186.426 48.9042C178.987 48.9042 173.642 52.3593 170.39 59.2696V87.805C173.845 94.7152 179.231 98.1704 186.548 98.1704C191.954 98.1704 196.161 96.077 199.169 91.8902C202.177 87.7033 203.681 81.4028 203.681 72.9885Z" fill="black"/>
<path d="M269.959 99.9996C265.569 105.162 259.126 107.743 250.63 107.743C243.598 107.743 238.232 105.711 234.533 101.646C230.875 97.5403 229.026 91.4837 228.985 83.4759V40.5509H240.265V83.171C240.265 93.1706 244.33 98.1704 252.46 98.1704C261.077 98.1704 266.808 94.9591 269.654 88.5366V40.5509H280.934V106.524H270.203L269.959 99.9996Z" fill="black"/>
<path d="M308.738 97.3167H347.333V106.524H294.958V98.2313L331.359 49.8798H295.506V40.5509H345.504V48.5384L308.738 97.3167Z" fill="black"/>
<path d="M370.686 97.3167H409.282V106.524H356.906V98.2313L393.307 49.8798H357.455V40.5509H407.453V48.5384L370.686 97.3167Z" fill="black"/>
<path d="M443.793 91.2195L460.133 40.5509H471.657L448 106.524H439.403L415.501 40.5509H427.025L443.793 91.2195Z" fill="black"/>
<path d="M509.034 107.743C500.091 107.743 492.815 104.816 487.205 98.963C481.596 93.069 478.791 85.2034 478.791 75.3665V73.2934C478.791 66.749 480.031 60.9159 482.511 55.7941C485.031 50.6318 488.527 46.6076 492.998 43.7215C497.51 40.7948 502.388 39.3314 507.631 39.3314C516.208 39.3314 522.875 42.1565 527.631 47.8067C532.386 53.4569 534.764 61.5459 534.764 72.0739V76.7689H490.071C490.234 83.2726 492.124 88.5366 495.742 92.5609C499.4 96.5444 504.034 98.5362 509.643 98.5362C513.627 98.5362 517.001 97.7232 519.765 96.0973C522.529 94.4713 524.948 92.317 527.021 89.6342L533.911 94.9998C528.383 103.495 520.09 107.743 509.034 107.743ZM507.631 48.5993C503.079 48.5993 499.258 50.2659 496.168 53.5991C493.079 56.8917 491.169 61.5256 490.437 67.501H523.484V66.6473C523.159 60.9159 521.615 56.4852 518.85 53.3552C516.086 50.1846 512.347 48.5993 507.631 48.5993Z" fill="black"/>
<path d="M560.129 106.524H548.849V12.8692H560.129V106.524Z" fill="black"/>
<defs>
<linearGradient id="paint0_linear_3028_915" x1="108.399" y1="13.0713" x2="-3.03023" y2="124.5" gradientUnits="userSpaceOnUse">
<stop offset="0.26" stop-color="#FF1B43"/>
<stop offset="0.71" stop-color="#BE0000"/>
</linearGradient>
<linearGradient id="paint1_linear_3028_915" x1="43.7241" y1="72.3329" x2="109.88" y2="72.3329" gradientUnits="userSpaceOnUse">
<stop stop-color="#B3B3B3"/>
<stop offset="0.19" stop-color="white"/>
</linearGradient>
<linearGradient id="paint2_linear_3028_915" x1="79.2583" y1="117.124" x2="91.3123" y2="117.124" gradientUnits="userSpaceOnUse">
<stop stop-opacity="0.25"/>
<stop offset="1" stop-opacity="0"/>
</linearGradient>
</defs>
</svg>
